<?xml version="1.0" encoding="UTF-8"?>
<svg version="1.1" xmlns="http://www.w3.org/2000/svg" width="600" height="300">
<path d="M0 0 C198 0 396 0 600 0 C600 99 600 198 600 300 C402 300 204 300 0 300 C0 201 0 102 0 0 Z " fill="#FEFEFE" transform="translate(0,0)"/>
<path d="M0 0 C1.31419922 -0.020625 2.62839844 -0.04125 3.98242188 -0.0625 C5.23474609 -0.06765625 6.48707031 -0.0728125 7.77734375 -0.078125 C8.93355225 -0.0874707 10.08976074 -0.09681641 11.28100586 -0.10644531 C12.19889893 0.01118164 13.11679199 0.12880859 14.0625 0.25 C15.93815722 3.06348583 16.66277945 4.89748202 17.54296875 8.09765625 C17.8164917 9.08282227 18.09001465 10.06798828 18.37182617 11.08300781 C18.66162354 12.14874023 18.9514209 13.21447266 19.25 14.3125 C19.55462158 15.41561523 19.85924316 16.51873047 20.1730957 17.65527344 C22.70628713 26.85766465 25.16812438 36.07935311 27.63183594 45.30053711 C29.6108165 52.67297643 31.69665123 59.99081186 34.0625 67.25 C39.02232458 52.47188507 43.77041475 37.65130785 47.8671875 22.609375 C49.13559063 17.95503429 50.46273103 13.3188398 51.8125 8.6875 C52.02342285 7.95426514 52.2343457 7.22103027 52.45166016 6.46557617 C53.94500717 1.36749283 53.94500717 1.36749283 55.0625 0.25 C64.6325 0.25 74.2025 0.25 84.0625 0.25 C84.0625 32.26 84.0625 64.27 84.0625 97.25 C77.4625 97.25 70.8625 97.25 64.0625 97.25 C62.31949027 95.50699027 62.89243914 93.09304811 62.85717773 90.72045898 C62.8272599 88.94873573 62.8272599 88.94873573 62.79673767 87.14122009 C62.78002518 85.8558284 62.76331268 84.57043671 62.74609375 83.24609375 C62.72531265 81.93794205 62.70453156 80.62979034 62.68312073 79.28199768 C62.627837 75.79844553 62.57845569 72.3148334 62.53027344 68.83117676 C62.48010426 65.2786727 62.42439433 61.7262561 62.36914062 58.17382812 C62.26148209 51.19929454 62.16005433 44.22468202 62.0625 37.25 C60.96052844 40.86576088 59.85912486 44.48169454 58.7578125 48.09765625 C58.45012939 49.1071936 58.14244629 50.11673096 57.82543945 51.15686035 C55.84462398 57.66171222 53.8832171 64.17207149 51.9375 70.6875 C50.0627824 76.94402077 48.17743437 83.19698997 46.25 89.4375 C45.9394165 90.45444946 45.9394165 90.45444946 45.62255859 91.49194336 C44.17892913 96.13357087 44.17892913 96.13357087 43.0625 97.25 C41.5737814 97.33669432 40.081055 97.35703494 38.58984375 97.34765625 C37.69072266 97.34443359 36.79160156 97.34121094 35.86523438 97.33789062 C34.44694336 97.32532227 34.44694336 97.32532227 33 97.3125 C32.05060547 97.30798828 31.10121094 97.30347656 30.12304688 97.29882812 C27.76946935 97.2870011 25.41601523 97.27052025 23.0625 97.25 C19.22633463 84.36753386 15.50647021 71.4709915 12.19287109 58.44311523 C10.8646653 53.23864821 9.45294145 48.06602884 7.97143555 42.90283203 C7.61333298 41.65357941 7.25523041 40.40432678 6.88627625 39.11721802 C6.61443008 38.17103607 6.34258392 37.22485413 6.0625 36.25 C6.06472061 36.99946396 6.06694122 37.74892792 6.06922913 38.52110291 C6.08923179 45.56982291 6.104474 52.61853315 6.11431217 59.66727352 C6.11954002 63.2914596 6.12663587 66.9156223 6.13793945 70.53979492 C6.14877184 74.03459975 6.15477758 77.52938204 6.15737724 81.02420235 C6.16013551 83.01239389 6.16794688 85.00057631 6.17579651 86.98875427 C6.17590981 88.79050865 6.17590981 88.79050865 6.17602539 90.62866211 C6.178246 91.69233505 6.18046661 92.756008 6.18275452 93.85191345 C6.0625 96.25 6.0625 96.25 5.0625 97.25 C3.65901265 97.34860131 2.25069523 97.38078937 0.84375 97.3828125 C-0.43048828 97.38474609 -0.43048828 97.38474609 -1.73046875 97.38671875 C-2.62378906 97.38285156 -3.51710937 97.37898438 -4.4375 97.375 C-5.33082031 97.37886719 -6.22414062 97.38273437 -7.14453125 97.38671875 C-7.99402344 97.38542969 -8.84351563 97.38414062 -9.71875 97.3828125 C-10.50314453 97.38168457 -11.28753906 97.38055664 -12.09570312 97.37939453 C-13.9375 97.25 -13.9375 97.25 -14.9375 96.25 C-15.03809769 93.30290585 -15.0736505 90.37920859 -15.06689453 87.43164062 C-15.06864685 86.50651169 -15.07039917 85.58138275 -15.07220459 84.6282196 C-15.07662467 81.55421095 -15.07368457 78.4802593 -15.0703125 75.40625 C-15.07098549 73.28015125 -15.07195548 71.15405258 -15.07321167 69.0279541 C-15.07468886 64.5656664 -15.07253342 60.10339867 -15.06787109 55.64111328 C-15.0621738 49.90729431 -15.06545269 44.17352215 -15.07144356 38.4397049 C-15.07504861 34.04754277 -15.07391084 29.65539183 -15.07131577 25.26322937 C-15.07064634 23.14841201 -15.07147545 21.03359366 -15.07379532 18.91877747 C-15.07632093 15.96861054 -15.07248254 13.01852054 -15.06689453 10.06835938 C-15.06891876 9.18520554 -15.07094299 8.3020517 -15.07302856 7.39213562 C-15.03691216 -2.84499453 -8.84773512 0.03461217 0 0 Z " fill="#040404" transform="translate(197.9375,115.75)"/>
<path d="M0 0 C3.89869985 3.29223543 5.74897964 5.54000051 6.2734375 10.6796875 C6.75611384 25.8654278 -0.72033221 40.21309278 -10 52 C-9.34 52 -8.68 52 -8 52 C-8.42954682 57.72729096 -10.84781971 61.39447802 -14 66 C-14.66 66.99 -15.32 67.98 -16 69 C-15.34 69.33 -14.68 69.66 -14 70 C-16.31 72.64 -18.62 75.28 -21 78 C-20.34 78 -19.68 78 -19 78 C-21.12642495 90.22694343 -28.12615502 103.73831546 -38 111.5625 C-42.05962227 114.27164309 -46.46878327 116.21688231 -51 118 C-44.58076669 117.70887831 -40.37899794 116.54784971 -35 113 C-36.39008876 118.25144641 -39.8042875 120.87300672 -44 124 C-44.99 124.495 -44.99 124.495 -46 125 C-43.525 124.505 -43.525 124.505 -41 124 C-43.08192146 128.86817455 -46.26355816 130.85533913 -51 133 C-54.64117502 133.9330212 -58.27130751 134.54076765 -62 135 C-61.01 137.475 -61.01 137.475 -60 140 C-62.0625 138.4375 -62.0625 138.4375 -64 136 C-63.73665751 129.11547501 -61.00757192 122.72986139 -58.6875 116.3125 C-58.2430957 115.08007568 -57.79869141 113.84765137 -57.34082031 112.57788086 C-48.76027163 89.02846517 -38.08217774 66.45104876 -27 44 C-44.63429819 76.17696314 -58.37321388 110.14163366 -69.60546875 145.05078125 C-70.04985542 146.43150314 -70.04985542 146.43150314 -70.5032196 147.84011841 C-71.94835546 152.34701055 -73.37420441 156.85905972 -74.77514648 161.37988281 C-75.0362471 162.20876511 -75.29734772 163.0376474 -75.56636047 163.89164734 C-76.05653836 165.4477744 -76.53821499 167.00661383 -77.00993347 168.56843567 C-78.6614844 173.77432293 -78.6614844 173.77432293 -82 176 C-79.83753477 166.54798814 -76.92711044 157.41828256 -73.8125 148.25 C-73.34397522 146.85951841 -72.87587373 145.46889412 -72.40820312 144.078125 C-71.27699426 140.71709624 -70.14012633 137.35801584 -69 134 C-73.95 134.99 -73.95 134.99 -79 136 C-76.49183541 133.49183541 -75.09162264 132.38589981 -72 131 C-72.99 130.01 -73.98 129.02 -75 128 C-73.02 128 -71.04 128 -69 128 C-69.78987473 126.08259417 -70.58197148 124.16610359 -71.375 122.25 C-71.81585938 121.18265625 -72.25671875 120.1153125 -72.7109375 119.015625 C-73.73307585 116.62444074 -74.80213595 114.30616817 -76 112 C-73.53199953 113.15173355 -71.95216435 114.04783565 -70 116 C-69.7525 114.865625 -69.505 113.73125 -69.25 112.5625 C-69.06179687 111.73492187 -68.87359375 110.90734375 -68.6796875 110.0546875 C-68.18138159 107.81517475 -67.71143048 105.56930269 -67.2578125 103.3203125 C-61.72299372 76.80519167 -48.41075387 52.06835996 -33 30 C-32.45053711 29.21077148 -31.90107422 28.42154297 -31.33496094 27.60839844 C-10.02049964 -2.75072539 -10.02049964 -2.75072539 0 0 Z " fill="#E05E2F" transform="translate(129,68)"/>
<path d="M0 0 C8.15543319 5.61218834 10.93956645 11.81869935 14 21 C14 27.6 14 34.2 14 41 C-0.19 41 -14.38 41 -29 41 C-27.18971553 48.98246879 -27.18971553 48.98246879 -22 54 C-15.5190594 57.2404703 -6.4691925 55.09102825 0.0625 53 C1.10535156 52.62875 2.14820313 52.2575 3.22265625 51.875 C6 51 6 51 10 51 C10 56.61 10 62.22 10 68 C-2.9909022 73.46985356 -17.24356511 75.94852822 -31 71 C-40.41834812 66.59350828 -46.0640956 60.84660236 -50.23828125 51.40625 C-54.03910494 39.39954543 -53.42628799 24.15436833 -47.96875 12.8671875 C-43.69651978 5.27531893 -37.19346245 -0.40788607 -28.96875 -3.33984375 C-19.29287283 -5.49145328 -8.62133191 -5.23769089 0 0 Z " fill="#040404" transform="translate(457,141)"/>
<path d="M0 0 C6.73408186 5.40954738 9.007904 11.41824325 11.6875 19.45703125 C11.6875 26.05703125 11.6875 32.65703125 11.6875 39.45703125 C-2.5025 39.45703125 -16.6925 39.45703125 -31.3125 39.45703125 C-29.50221553 47.43950004 -29.50221553 47.43950004 -24.3125 52.45703125 C-17.85688264 55.68483993 -8.77789387 53.55765196 -2.25 51.51953125 C-0.26930448 50.83644837 1.71008198 50.14954473 3.6875 49.45703125 C5.6675 48.96203125 5.6675 48.96203125 7.6875 48.45703125 C7.6875 54.39703125 7.6875 60.33703125 7.6875 66.45703125 C-4.14236575 72.37196413 -18.06145093 73.39015417 -31.0078125 70.2734375 C-39.48810784 67.26940068 -46.5103236 62.12445555 -50.52734375 54 C-55.56744272 42.03649106 -56.01203932 27.92370802 -52.3125 15.45703125 C-48.69315143 6.64900718 -42.82425695 0.22017605 -34.20703125 -3.81640625 C-23.22351618 -8.02864089 -9.71120253 -6.47960304 0 0 Z " fill="#040404" transform="translate(341.3125,142.54296875)"/>
<path d="M0 0 C7.26 0 14.52 0 22 0 C22.09056749 12.84839173 22.16386975 25.69656951 22.20724869 38.54520893 C22.22807417 44.51211269 22.25629982 50.47878567 22.30175781 56.44555664 C22.34539509 62.20977721 22.36917497 67.97377657 22.37950897 73.73814964 C22.38686828 75.93126085 22.40123895 78.12436071 22.42292023 80.31737709 C22.65579856 104.86093048 22.65579856 104.86093048 15 115.375 C7.9603903 122.517485 0.14908583 124.23057967 -9.59936523 124.3828125 C-22.2999635 124.35001825 -22.2999635 124.35001825 -25 123 C-25 116.73 -25 110.46 -25 104 C-16.8125 104.1875 -16.8125 104.1875 -14.26098633 104.27026367 C-9.69989768 104.32068341 -6.64254537 104.05260393 -3 101 C-1.31109525 98.19320749 -0.74685164 96.09491086 -0.7215271 92.83648682 C-0.71036362 92.01481522 -0.69920013 91.19314362 -0.68769836 90.34657288 C-0.68553818 89.45393234 -0.68337799 88.56129181 -0.68115234 87.64160156 C-0.67110672 86.69492111 -0.6610611 85.74824066 -0.65071106 84.77287292 C-0.61983373 81.64546309 -0.60283115 78.51813905 -0.5859375 75.390625 C-0.56722953 73.22157043 -0.5476564 71.05252316 -0.5272522 68.88348389 C-0.47588591 63.17564192 -0.43628416 57.46777635 -0.39910889 51.75982666 C-0.35909749 45.9348769 -0.30799207 40.11002572 -0.2578125 34.28515625 C-0.16099987 22.85683314 -0.07763734 11.42846948 0 0 Z " fill="#D22229" transform="translate(153,116)"/>
<path d="M0 0 C4.95 0 9.9 0 15 0 C15 4.95 15 9.9 15 15 C20.61 15 26.22 15 32 15 C32 20.94 32 26.88 32 33 C26.39 33 20.78 33 15 33 C15.09681668 38.23319623 15.19946906 43.46557765 15.31738281 48.69824219 C15.35571565 50.47909473 15.39056089 52.26002584 15.421875 54.04101562 C15.46743271 56.59794234 15.52544107 59.1543261 15.5859375 61.7109375 C15.59748871 62.50994476 15.60903992 63.30895203 15.62094116 64.13217163 C15.57258944 68.53457212 15.57258944 68.53457212 18 72 C23.32826834 72.2709289 27.60374732 71.77089324 33 71 C33 76.61 33 82.22 33 88 C24.3930303 91.6887013 14.52715213 92.62694593 5.3671875 90.34375 C-0.35168515 87.8213575 -3.22855275 83.37003023 -6.05078125 78.00097656 C-7.41500792 73.68794307 -7.24604498 69.60128222 -7.1953125 65.10546875 C-7.1924826 64.15811356 -7.18965271 63.21075836 -7.18673706 62.23469543 C-7.17557187 59.21883334 -7.15047389 56.20327184 -7.125 53.1875 C-7.11496547 51.13867617 -7.10584045 49.08984768 -7.09765625 47.04101562 C-7.07564449 42.02722852 -7.04113971 37.01366517 -7 32 C-10.3 32 -13.6 32 -17 32 C-17.96523973 25.59431813 -17.96523973 25.59431813 -17 22 C-14.76171875 20.3046875 -14.76171875 20.3046875 -11.875 18.8125 C-3.8003054 14.51988816 -2.74064777 8.37008645 0 0 Z " fill="#030303" transform="translate(370,123)"/>
<path d="M0 0 C1 1 1 1 1.11352539 2.94946289 C1.10828857 3.7821167 1.10305176 4.61477051 1.09765625 5.47265625 C1.09443359 6.37177734 1.09121094 7.27089844 1.08789062 8.19726562 C1.07532227 9.61555664 1.07532227 9.61555664 1.0625 11.0625 C1.05798828 12.01189453 1.05347656 12.96128906 1.04882812 13.93945312 C1.0370011 16.29303065 1.02052025 18.64648477 1 21 C-0.28583984 21.05607422 -0.28583984 21.05607422 -1.59765625 21.11328125 C-10.74440878 21.51946767 -10.74440878 21.51946767 -19 25 C-22.50164982 30.25765622 -22.45520481 35.08047426 -22.4765625 41.17578125 C-22.49993179 42.62442818 -22.49993179 42.62442818 -22.52377319 44.1023407 C-22.57113391 47.17238628 -22.59901929 50.24220543 -22.625 53.3125 C-22.66146193 56.40048971 -22.70199991 59.48835017 -22.74765015 62.57621765 C-22.77493382 64.49477052 -22.79626016 66.41341876 -22.81118774 68.33210754 C-22.82658096 69.62431465 -22.82658096 69.62431465 -22.84228516 70.94262695 C-22.84878082 71.70396439 -22.85527649 72.46530182 -22.86196899 73.24971008 C-23 75 -23 75 -24 76 C-30.93 76 -37.86 76 -45 76 C-45 51.25 -45 26.5 -45 1 C-39.39 1 -33.78 1 -28 1 C-27.01 3.97 -26.02 6.94 -25 10 C-24.175 8.906875 -23.35 7.81375 -22.5 6.6875 C-16.4321071 -0.29977062 -8.88845711 -0.81230188 0 0 Z " fill="#020202" transform="translate(519,137)"/>
<path d="M0 0 C1.05960938 0.00676758 1.05960938 0.00676758 2.140625 0.01367188 C3.88545275 0.02546125 5.630237 0.04339676 7.375 0.0625 C7.375 0.7225 7.375 1.3825 7.375 2.0625 C9.355 2.0625 11.335 2.0625 13.375 2.0625 C13.05066492 7.41402885 9.87795176 10.34530043 6.375 14.0625 C7.365 14.3925 8.355 14.7225 9.375 15.0625 C7.065 17.7025 4.755 20.3425 2.375 23.0625 C3.035 23.0625 3.695 23.0625 4.375 23.0625 C2.24857505 35.28944343 -4.75115502 48.80081546 -14.625 56.625 C-18.68462227 59.33414309 -23.09378327 61.27938231 -27.625 63.0625 C-21.20576669 62.77137831 -17.00399794 61.61034971 -11.625 58.0625 C-13.01508876 63.31394641 -16.4292875 65.93550672 -20.625 69.0625 C-21.615 69.5575 -21.615 69.5575 -22.625 70.0625 C-20.15 69.5675 -20.15 69.5675 -17.625 69.0625 C-19.70692146 73.93067455 -22.88855816 75.91783913 -27.625 78.0625 C-31.26617502 78.9955212 -34.89630751 79.60326765 -38.625 80.0625 C-37.965 81.7125 -37.305 83.3625 -36.625 85.0625 C-38.6875 83.5 -38.6875 83.5 -40.625 81.0625 C-40.36164742 74.17771109 -37.63199662 67.79280538 -35.3125 61.375 C-34.87244629 60.15127686 -34.43239258 58.92755371 -33.97900391 57.66674805 C-29.09236593 44.22493097 -23.4683352 31.11535863 -17.625 18.0625 C-16.99271484 16.64904297 -16.99271484 16.64904297 -16.34765625 15.20703125 C-15.24395468 12.75717564 -14.12748015 10.31399005 -13 7.875 C-12.68144043 7.17995361 -12.36288086 6.48490723 -12.03466797 5.76879883 C-9.07570099 -0.48904951 -6.48001025 -0.0777123 0 0 Z " fill="#C02444" transform="translate(105.625,122.9375)"/>
<path d="M0 0 C1.25 1.4375 1.25 1.4375 3 4 C3.41548096 4.5662207 3.83096191 5.13244141 4.2590332 5.71582031 C5.75742398 8.21442786 6.52757482 10.10973602 7 13 C5.88126211 17.39187031 3.99265259 21.30676313 1.94735718 25.32562256 C0.56778919 28.03989995 -0.73504781 30.78861183 -2.04203796 33.53839111 C-2.71417272 34.95241247 -3.38974662 36.36480399 -4.06867981 37.77557373 C-9.39782406 48.89680465 -13.67036841 60.46118001 -18 72 C-18.38462402 73.02158203 -18.76924805 74.04316406 -19.16552734 75.09570312 C-22.99585041 85.33422801 -26.59199172 95.6316167 -29.8984375 106.05078125 C-30.14583679 106.8278241 -30.39323608 107.60486694 -30.64813232 108.40545654 C-31.8760298 112.26761023 -33.09043375 116.13319884 -34.28320312 120.00634766 C-34.72755998 121.41969216 -35.17220742 122.83294534 -35.6171875 124.24609375 C-36.00503418 125.50091553 -36.39288086 126.7557373 -36.79248047 128.04858398 C-38 131 -38 131 -41 133 C-38.83753477 123.54798814 -35.92711044 114.41828256 -32.8125 105.25 C-32.34397522 103.85951841 -31.87587373 102.46889412 -31.40820312 101.078125 C-30.27699426 97.71709624 -29.14012633 94.35801584 -28 91 C-32.95 91.99 -32.95 91.99 -38 93 C-35.49183541 90.49183541 -34.09162264 89.38589981 -31 88 C-31.99 87.01 -32.98 86.02 -34 85 C-32.02 85 -30.04 85 -28 85 C-28.78987473 83.08259417 -29.58197148 81.16610359 -30.375 79.25 C-30.81585938 78.18265625 -31.25671875 77.1153125 -31.7109375 76.015625 C-32.73307585 73.62444074 -33.80213595 71.30616817 -35 69 C-32.53199953 70.15173355 -30.95216435 71.04783565 -29 73 C-28.7525 71.865625 -28.505 70.73125 -28.25 69.5625 C-28.06179687 68.73492187 -27.87359375 67.90734375 -27.6796875 67.0546875 C-27.18138159 64.81517475 -26.71143048 62.56930269 -26.2578125 60.3203125 C-21.94358963 39.65258241 -13.07734164 16.69997331 0 0 Z " fill="#BF2446" transform="translate(88,111)"/>
<path d="M0 0 C17.77777778 0 17.77777778 0 22.8125 4.6875 C24.5564679 8.08364801 24.68081506 11.3104216 24 15 C22.20636089 17.8100346 20.98119065 19.50940468 18 21 C15.44842345 21.0716735 12.92527029 21.09308442 10.375 21.0625 C9.66859375 21.05798828 8.9621875 21.05347656 8.234375 21.04882812 C6.48954725 21.03703875 4.744763 21.01910324 3 21 C3 25.29 3 29.58 3 34 C2.01 34 1.02 34 0 34 C0 22.78 0 11.56 0 0 Z " fill="#FBEFEF" transform="translate(188,69)"/>
<path d="M0 0 C3.45870036 1.53720016 5.39730687 3.35176825 7.8125 6.25 C8.95327657 9.67232972 8.91065117 12.33673217 8.875 15.9375 C8.86597656 17.11699219 8.85695312 18.29648438 8.84765625 19.51171875 C8.83605469 20.41535156 8.82445312 21.31898437 8.8125 22.25 C8.24329834 22.28327393 7.67409668 22.31654785 7.08764648 22.35083008 C-4.3607663 22.78923618 -4.3607663 22.78923618 -14.07421875 27.8984375 C-15.75372118 30.63775174 -17.10042912 33.22978893 -18.1875 36.25 C-18.5175 35.59 -18.8475 34.93 -19.1875 34.25 C-18.20291488 32.46726009 -17.14947665 30.72222275 -16.0625 29 C-14.33159297 26.11749598 -14.33159297 26.11749598 -13.1875 23.25 C-14.0526124 19.58701114 -14.0526124 19.58701114 -16.1875 17.25 C-18.1675 18.24 -18.1675 18.24 -20.1875 19.25 C-16.90614015 12.06605198 -8.26816731 0.64848371 0 0 Z " fill="#F59A30" transform="translate(126.1875,66.75)"/>
<path d="M0 0 C1.8137207 0.10620117 1.8137207 0.10620117 4 1 C5.53979492 3.7121582 5.53979492 3.7121582 6.98046875 7.30078125 C7.23878983 7.93356491 7.4971109 8.56634857 7.76325989 9.2183075 C8.58582947 11.24419864 9.38644576 13.27801931 10.1875 15.3125 C10.73758446 16.67177019 11.28900184 18.03050178 11.84179688 19.38867188 C16.16129612 30.08342824 16.16129612 30.08342824 17 34 C15.68 34 14.36 34 13 34 C11.68 30.7 10.36 27.4 9 24 C4.05 24 -0.9 24 -6 24 C-7.32 27.3 -8.64 30.6 -10 34 C-11.32 34 -12.64 34 -14 34 C-12.66241742 29.83828625 -11.14263795 25.81968781 -9.43359375 21.796875 C-8.94826172 20.6521875 -8.46292969 19.5075 -7.96289062 18.328125 C-7.20782227 16.55695313 -7.20782227 16.55695313 -6.4375 14.75 C-5.93025391 13.55375 -5.42300781 12.3575 -4.90039062 11.125 C-1.16171288 2.32342575 -1.16171288 2.32342575 0 0 Z " fill="#D53239" transform="translate(224,69)"/>
<path d="M0 0 C0.99 0 1.98 0 3 0 C4.85824533 4.35706827 6.70945639 8.71703168 8.55419922 13.07983398 C9.18280449 14.56372537 9.81332755 16.04680585 10.44580078 17.52905273 C11.35433737 19.65919308 12.25594736 21.7921501 13.15625 23.92578125 C13.44060913 24.58838455 13.72496826 25.25098785 14.01794434 25.93367004 C15.21997859 28.79901292 16 30.85793701 16 34 C14.109375 33.81640625 14.109375 33.81640625 12 33 C10.51818994 29.76545193 9.87739543 26.46571194 9 23 C3.72 23 -1.56 23 -7 23 C-7.4125 24.629375 -7.825 26.25875 -8.25 27.9375 C-8.953125 30.71484375 -8.953125 30.71484375 -10 33 C-12.06542969 33.64282227 -12.06542969 33.64282227 -14 34 C-11.93113841 26.33672448 -9.08957431 19.18650402 -5.875 11.9375 C-5.41996094 10.89400391 -4.96492187 9.85050781 -4.49609375 8.77539062 C-1.14621443 1.14621443 -1.14621443 1.14621443 0 0 Z " fill="#D42F35" transform="translate(168,69)"/>
<path d="M0 0 C0.33 0 0.66 0 1 0 C1.18175781 0.66386719 1.36351563 1.32773438 1.55078125 2.01171875 C3.05879497 7.58784858 3.05879497 7.58784858 5.875 12.5625 C7.69779641 16.51189222 5.39537412 20.08404178 4 24 C3.06320169 26.7619539 2.14367551 29.52962564 1.22265625 32.296875 C0.70398016 33.84902656 0.18509561 35.40110847 -0.33398438 36.953125 C-0.59783936 37.74267578 -0.86169434 38.53222656 -1.13354492 39.34570312 C-1.66718111 40.94158809 -2.20135609 42.537293 -2.73608398 44.1328125 C-3.52215098 46.47867447 -4.30624724 48.82518678 -5.08984375 51.171875 C-5.34325531 51.92762817 -5.59666687 52.68338135 -5.85775757 53.46203613 C-7.01917322 56.94841759 -8.14501154 60.43607338 -9.16455078 63.96679688 C-9.50341309 65.13791016 -9.84227539 66.30902344 -10.19140625 67.515625 C-10.47314697 68.53430664 -10.7548877 69.55298828 -11.04516602 70.60253906 C-12 73 -12 73 -15 75 C-12.83753477 65.54798814 -9.92711044 56.41828256 -6.8125 47.25 C-6.34397522 45.85951841 -5.87587373 44.46889412 -5.40820312 43.078125 C-4.27699426 39.71709624 -3.14012633 36.35801584 -2 33 C-5.3 33.66 -8.6 34.32 -12 35 C-9.49183541 32.49183541 -8.09162264 31.38589981 -5 30 C-5.99 29.01 -6.98 28.02 -8 27 C-6.02 27 -4.04 27 -2 27 C-2.78987473 25.08259417 -3.58197148 23.16610359 -4.375 21.25 C-4.81585938 20.18265625 -5.25671875 19.1153125 -5.7109375 18.015625 C-6.73307585 15.62444074 -7.80213595 13.30616817 -9 11 C-6.53199953 12.15173355 -4.95216435 13.04783565 -3 15 C-1.85948394 10.01716284 -0.77774134 5.05531868 0 0 Z " fill="#8C3581" transform="translate(62,169)"/>
<path d="M0 0 C1.98 0 3.96 0 6 0 C7.32 4.29 8.64 8.58 10 13 C10.33 13 10.66 13 11 13 C12.32 8.71 13.64 4.42 15 0 C16.98 0 18.96 0 21 0 C21 6.93 21 13.86 21 21 C19.68 21 18.36 21 17 21 C16.67 17.04 16.34 13.08 16 9 C14.68 12.96 13.36 16.92 12 21 C10.68 21 9.36 21 8 21 C7.01 17.7 6.02 14.4 5 11 C4.67 14.3 4.34 17.6 4 21 C2.68 21 1.36 21 0 21 C0 14.07 0 7.14 0 0 Z " fill="#585858" transform="translate(547,117)"/>
<path d="M0 0 C0 3.50051525 -0.52511319 4.0126916 -2.75 6.5625 C-3.26046875 7.16191406 -3.7709375 7.76132813 -4.296875 8.37890625 C-6.08620137 10.08204947 -7.74733705 11.01568423 -10 12 C-8.35 11.67 -6.7 11.34 -5 11 C-7.08192146 15.86817455 -10.26355816 17.85533913 -15 20 C-18.64117502 20.9330212 -22.27130751 21.54076765 -26 22 C-25.34 23.65 -24.68 25.3 -24 27 C-26.0625 25.4375 -26.0625 25.4375 -28 23 C-28 16.42743124 -25.16515363 10.13292354 -23 4 C-22.08992188 4.15855469 -21.17984375 4.31710938 -20.2421875 4.48046875 C-12.46349137 5.72693452 -7.67309131 5.14364024 -1 1 C-0.67 0.67 -0.34 0.34 0 0 Z " fill="#89317F" transform="translate(93,181)"/>
<path d="M0 0 C7.26 0 14.52 0 22 0 C22 0.99 22 1.98 22 3 C15.73 3 9.46 3 3 3 C3 6.96 3 10.92 3 15 C8.61 15 14.22 15 20 15 C20 15.99 20 16.98 20 18 C14.39 18 8.78 18 3 18 C3 22.29 3 26.58 3 31 C9.27 31 15.54 31 22 31 C22 31.99 22 32.98 22 34 C14.74 34 7.48 34 0 34 C0 22.78 0 11.56 0 0 Z " fill="#D42C33" transform="translate(309,69)"/>
<path d="M0 0 C0.99 0 1.98 0 3 0 C3 4.95 3 9.9 3 15 C9.6 15 16.2 15 23 15 C23 10.05 23 5.1 23 0 C23.99 0 24.98 0 26 0 C26 11.22 26 22.44 26 34 C25.01 34 24.02 34 23 34 C23 28.72 23 23.44 23 18 C16.4 18 9.8 18 3 18 C3 23.28 3 28.56 3 34 C2.01 34 1.02 34 0 34 C0 22.78 0 11.56 0 0 Z " fill="#D3282F" transform="translate(275,69)"/>
<path d="M0 0 C17.77777778 0 17.77777778 0 22.8125 4.6875 C24.5564679 8.08364801 24.68081506 11.3104216 24 15 C22.20636089 17.8100346 20.98119065 19.50940468 18 21 C15.44842345 21.0716735 12.92527029 21.09308442 10.375 21.0625 C9.66859375 21.05798828 8.9621875 21.05347656 8.234375 21.04882812 C6.48954725 21.03703875 4.744763 21.01910324 3 21 C3 25.29 3 29.58 3 34 C2.01 34 1.02 34 0 34 C0 22.78 0 11.56 0 0 Z M3 3 C3 8.28 3 13.56 3 19 C5.0625 19.0825 7.125 19.165 9.25 19.25 C10.41015625 19.29640625 11.5703125 19.3428125 12.765625 19.390625 C16.05923588 19.27052915 16.05923588 19.27052915 18.35546875 17.19921875 C20.6985189 14.06587616 21.06833057 11.89484267 21 8 C19.53331024 4.77741287 19.53331024 4.77741287 16 3 C11.57743685 2.58287796 7.46128579 2.77468254 3 3 Z " fill="#D42C33" transform="translate(188,69)"/>
<path d="M0 0 C3.59911415 1.4260641 6.58555311 2.91487342 9 6 C9 6.66 9 7.32 9 8 C6.43082078 7.52422607 4.88108877 6.91965457 2.6875 5.4375 C-0.80724973 3.56821526 -3.08225897 3.58024203 -7 4 C-10.45893025 5.41501692 -11.7512539 6.62259213 -13.8125 9.75 C-15.61395431 14.68029599 -15.64699626 18.26332582 -13.8125 23.1875 C-11.78510695 26.33345474 -10.22791272 28.09259703 -7 30 C-1.94037385 30.63245327 0.89223189 29.96672141 5 27 C5.99 26.34 6.98 25.68 8 25 C8.66 25.66 9.32 26.32 10 27 C3.7802741 33.56526623 3.7802741 33.56526623 -1.1484375 34.3359375 C-6.61611147 34.4318616 -9.79680757 33.82108403 -14 30 C-18.21335311 25.16244643 -19.77687873 20.81418199 -19.421875 14.39453125 C-18.52867662 9.32480341 -16.20427354 6.08958083 -12.375 2.625 C-8.2715768 -0.18260535 -4.90451769 -0.52059126 0 0 Z " fill="#D53339" transform="translate(260,69)"/>
<path d="M0 0 C2.37890625 0.48046875 2.37890625 0.48046875 5.44140625 2.54296875 C7.37890625 5.48046875 7.37890625 5.48046875 8.37890625 12.48046875 C1.11890625 12.48046875 -6.14109375 12.48046875 -13.62109375 12.48046875 C-12.62109375 5.48046875 -12.62109375 5.48046875 -10.68359375 2.54296875 C-6.91348645 0.00391689 -4.47253537 -0.24662267 0 0 Z " fill="#F9F8F9" transform="translate(323.62109375,153.51953125)"/>
<path d="M0 0 C2.37890625 0.48046875 2.37890625 0.48046875 5.44140625 2.54296875 C7.37890625 5.48046875 7.37890625 5.48046875 8.37890625 12.48046875 C1.11890625 12.48046875 -6.14109375 12.48046875 -13.62109375 12.48046875 C-12.62109375 5.48046875 -12.62109375 5.48046875 -10.68359375 2.54296875 C-6.91348645 0.00391689 -4.47253537 -0.24662267 0 0 Z " fill="#F9F9F9" transform="translate(441.62109375,153.51953125)"/>
<path d="M0 0 C1 3 1 3 -0.703125 6.5703125 C-1.54576847 8.09205559 -2.39530186 9.60999467 -3.25 11.125 C-15.66153708 33.93097869 -25.01880483 58.448041 -34.0625 82.75 C-34.34963867 83.51812012 -34.63677734 84.28624023 -34.93261719 85.07763672 C-36.25605696 88.69051277 -37.39332801 92.19519295 -38 96 C-40 93 -40 93 -39.71264648 90.99194336 C-39.45555908 90.21987549 -39.19847168 89.44780762 -38.93359375 88.65234375 C-38.63952637 87.76144043 -38.34545898 86.87053711 -38.04248047 85.95263672 C-37.69846191 84.9782666 -37.35444336 84.00389648 -37 83 C-36.63922363 81.97793457 -36.27844727 80.95586914 -35.90673828 79.90283203 C-34.6557507 76.44391585 -33.36698421 73.00159473 -32.0625 69.5625 C-31.82622894 68.93904694 -31.58995789 68.31559387 -31.3465271 67.67324829 C-22.4961303 44.40366984 -12.15585069 21.7331876 0 0 Z " fill="#F5D9DC" transform="translate(103,108)"/>
<path d="M0 0 C4.95 0 9.9 0 15 0 C15 1.32 15 2.64 15 4 C13.02 4 11.04 4 9 4 C9 9.61 9 15.22 9 21 C7.68 21 6.36 21 5 21 C5 15.39 5 9.78 5 4 C3.35 4 1.7 4 0 4 C0 2.68 0 1.36 0 0 Z " fill="#585858" transform="translate(529,117)"/>
<path d="M0 0 C0.66 0 1.32 0 2 0 C3.0044134 2.2898234 4.00367612 4.5816599 5 6.875 C5.28617188 7.52597656 5.57234375 8.17695312 5.8671875 8.84765625 C8 13.7734375 8 13.7734375 8 16 C3.38 16 -1.24 16 -6 16 C-4.70814882 12.12444646 -3.40376945 8.39596464 -1.875 4.625 C-1.52179688 3.75101562 -1.16859375 2.87703125 -0.8046875 1.9765625 C-0.53914062 1.32429688 -0.27359375 0.67203125 0 0 Z " fill="#FAEBEB" transform="translate(168,74)"/>
<path d="M0 0 C3.1398451 1.56992255 3.42143346 4.22447002 4.625 7.4375 C5.07101563 8.61183594 5.51703125 9.78617188 5.9765625 10.99609375 C7 14 7 14 7 16 C2.71 16 -1.58 16 -6 16 C-5.16583712 11.82918558 -4.21232487 8.96469139 -2.4375 5.1875 C-1.98246094 4.21167969 -1.52742187 3.23585938 -1.05859375 2.23046875 C-0.70925781 1.49441406 -0.35992187 0.75835937 0 0 Z " fill="#FBEDEE" transform="translate(225,74)"/>
<path d="M0 0 C1.28142966 3.84428897 0.45656954 5.10630165 -0.984375 8.84765625 C-1.42523438 10.01103516 -1.86609375 11.17441406 -2.3203125 12.37304688 C-2.79210937 13.59056641 -3.26390625 14.80808594 -3.75 16.0625 C-6.7828607 23.97449678 -9.73009475 31.8309259 -12 40 C-14 37 -14 37 -13.71923828 34.99633789 C-13.46384277 34.22539795 -13.20844727 33.45445801 -12.9453125 32.66015625 C-12.50687012 31.33008545 -12.50687012 31.33008545 -12.05957031 29.97314453 C-10.08313952 24.42729796 -8.00633594 18.92553648 -5.875 13.4375 C-5.41996094 12.25091797 -4.96492188 11.06433594 -4.49609375 9.84179688 C-1.13194444 1.13194444 -1.13194444 1.13194444 0 0 Z " fill="#F3E4EB" transform="translate(77,164)"/>
<path d="M0 0 C1.11791992 1.56982422 1.11791992 1.56982422 2 4 C1.35668945 7.17626953 1.35668945 7.17626953 0.11328125 10.8828125 C-0.10439407 11.53829071 -0.3220694 12.19376892 -0.54634094 12.86911011 C-1.00928174 14.25160043 -1.47961388 15.63163465 -1.95678711 17.00927734 C-2.68530573 19.11864665 -3.38618884 21.23576415 -4.08398438 23.35546875 C-7.5846003 33.72306687 -7.5846003 33.72306687 -11 36 C-9.03227867 27.58551399 -6.60337688 19.42580569 -3.8125 11.25 C-3.44447266 10.15945312 -3.07644531 9.06890625 -2.69726562 7.9453125 C-1.80234902 5.29542958 -0.90322421 2.64706023 0 0 Z " fill="#67508C" transform="translate(58,208)"/>
<path d="M0 0 C5.61925626 0.40137545 8.08656763 2.17974459 12 6 C12 6.66 12 7.32 12 8 C8.49374651 7.3506938 6.03457721 5.82074633 3 4 C0.80869466 3.30420546 0.80869466 3.30420546 -1 3 C-0.67 2.01 -0.34 1.02 0 0 Z " fill="#D32A31" transform="translate(257,69)"/>
<path d="M0 0 C-0.33 1.98 -0.66 3.96 -1 6 C-3.31 5.67 -5.62 5.34 -8 5 C-8 3.68 -8 2.36 -8 1 C-5.07175348 0.02391783 -3.04386724 -0.08226668 0 0 Z " fill="#CC6467" transform="translate(121,120)"/>
<path d="M0 0 C0.99 0.33 1.98 0.66 3 1 C2.34 1 1.68 1 1 1 C0.87625 1.721875 0.7525 2.44375 0.625 3.1875 C0.0095069 5.95721894 -0.88444374 8.3970354 -2 11 C-2.99 11 -3.98 11 -5 11 C-4.39102647 7.44765442 -3.54266151 4.2668126 -2 1 C-1.34 0.67 -0.68 0.34 0 0 Z " fill="#D6383E" transform="translate(167,73)"/>
<path d="M0 0 C0.66 0.33 1.32 0.66 2 1 C2 1.99 2 2.98 2 4 C-0.75078884 4.91692961 -2.35948913 5.10886083 -5.1875 5.0625 C-7.0746875 5.0315625 -7.0746875 5.0315625 -9 5 C-6.32239719 2.32239719 -3.52050129 1.32018799 0 0 Z " fill="#E6CFDE" transform="translate(85,182)"/>
<path d="M0 0 C1.125 1.5625 1.125 1.5625 2 4 C1.125 7.75 1.125 7.75 0 11 C-2 8 -2 8 -1.7578125 5.95703125 C-1.171875 3.97135417 -0.5859375 1.98567708 0 0 Z " fill="#E4D2E2" transform="translate(65,193)"/>
<path d="M0 0 C1.125 1.625 1.125 1.625 2 4 C1.125 7.25 1.125 7.25 0 10 C-1.125 8.375 -1.125 8.375 -2 6 C-1.125 2.75 -1.125 2.75 0 0 Z " fill="#8C59A0" transform="translate(58,208)"/>
</svg>
