<?xml version="1.0" encoding="UTF-8"?>
<svg version="1.1" xmlns="http://www.w3.org/2000/svg" width="512" height="512">
<path d="M0 0 C2.4326433 1.91056917 4.75364666 3.90013189 7.06640625 5.953125 C7.73671875 6.48164062 8.40703125 7.01015625 9.09765625 7.5546875 C25.17288646 20.5041785 34.86265886 40.85296086 38.06640625 60.953125 C38.49443009 65.63029588 38.41012691 70.27088575 38.06640625 74.953125 C38.741875 74.90671875 39.41734375 74.8603125 40.11328125 74.8125 C47.31067076 74.52127615 47.31067076 74.52127615 50.69140625 76.453125 C52.66542312 80.04224658 53.11907982 83.03965088 52.06640625 86.953125 C50.81298828 88.76879883 50.81298828 88.76879883 49.13671875 90.59765625 C48.50306396 91.29036621 47.86940918 91.98307617 47.21655273 92.69677734 C43.28684492 96.82058336 39.29105257 100.87209734 35.25390625 104.890625 C34.39603516 105.75236328 33.53816406 106.61410156 32.65429688 107.50195312 C31.42549805 108.72881836 31.42549805 108.72881836 30.171875 109.98046875 C29.43090576 110.72031006 28.68993652 111.46015137 27.92651367 112.22241211 C24.92333328 115.01668246 22.37052522 115.4852303 18.25561523 115.41674805 C15.56113993 114.84612146 14.43136316 113.89588868 12.4140625 112.03515625 C11.37668945 111.08213623 11.37668945 111.08213623 10.31835938 110.10986328 C6.20420487 106.16965936 2.1476867 102.17802528 -1.87109375 98.140625 C-2.73283203 97.28275391 -3.59457031 96.42488281 -4.48242188 95.54101562 C-5.30033203 94.72181641 -6.11824219 93.90261719 -6.9609375 93.05859375 C-7.70077881 92.31762451 -8.44062012 91.57665527 -9.20288086 90.81323242 C-12.11124922 87.68742362 -12.29209541 85.18653457 -12.19921875 80.9296875 C-11.93359375 78.953125 -11.93359375 78.953125 -10.49609375 76.453125 C-6.71465647 74.23960074 -3.21283445 74.62395264 1.06640625 74.953125 C-0.56993353 58.44318932 -5.80436564 44.54778025 -18.74609375 33.578125 C-31.8494671 23.74051547 -45.99738785 21.64231226 -61.93359375 22.953125 C-74.10838567 25.26462811 -86.36137307 32.5462877 -93.84375 42.4921875 C-100.61286614 52.696163 -104.10581821 62.2333097 -104.30859375 74.390625 C-104.34597656 75.23689453 -104.38335937 76.08316406 -104.421875 76.95507812 C-104.48251022 81.25681008 -104.46464041 83.27414391 -101.74609375 86.75 C-100.81796875 87.47703125 -99.88984375 88.2040625 -98.93359375 88.953125 C-98.05960937 89.74332031 -97.185625 90.53351563 -96.28515625 91.34765625 C-94.93550781 92.54455078 -94.93550781 92.54455078 -93.55859375 93.765625 C-88.97660847 97.92550482 -84.81720082 102.14082928 -80.93359375 106.953125 C-80.175625 107.87351562 -79.41765625 108.79390625 -78.63671875 109.7421875 C-58.20610809 135.05733022 -44.06348614 168.0218204 -43.6953125 200.8359375 C-43.68048576 201.92813095 -43.68048576 201.92813095 -43.6653595 203.04238892 C-43.48970149 219.35138386 -43.56714727 235.11185764 -47.93359375 250.953125 C-48.32828857 252.38906006 -48.32828857 252.38906006 -48.73095703 253.85400391 C-54.20545861 273.04729043 -62.48423563 289.59689912 -73.93359375 305.953125 C-58.75359375 306.283125 -43.57359375 306.613125 -27.93359375 306.953125 C-27.93359375 299.693125 -27.93359375 292.433125 -27.93359375 284.953125 C-22.76117996 277.19450431 -22.76117996 277.19450431 -17.93359375 274.953125 C-10.44676448 273.9452826 -6.09487683 274.48303598 0.06640625 278.953125 C1.85516228 280.56757565 3.60026947 282.23132223 5.30566406 283.93359375 C5.79100616 284.41543121 6.27634827 284.89726868 6.77639771 285.39370728 C8.36247437 286.9710563 9.94121053 288.55551818 11.51953125 290.140625 C12.62688514 291.2466301 13.73453565 292.3523383 14.84246826 293.45776367 C17.1554043 295.76776098 19.46470896 298.08131207 21.77148438 300.39746094 C24.72593476 303.36333186 27.68930994 306.32009714 30.6554451 309.27427673 C32.9410219 311.55262395 35.22181072 313.8357163 37.50118256 316.12026978 C38.59214312 317.2125624 39.68458554 318.30337709 40.77854156 319.39266968 C42.30549902 320.91454096 43.82588719 322.44268867 45.34472656 323.97265625 C46.21043274 324.83995361 47.07613892 325.70725098 47.96807861 326.60083008 C51.55063168 330.61699096 52.37330342 333.47524254 52.44140625 338.828125 C52.46976562 339.83617187 52.498125 340.84421875 52.52734375 341.8828125 C51.62438445 347.8974397 47.2512637 352.0194147 43.0859375 356.19238281 C42.60410004 356.67772491 42.12226257 357.16306702 41.62582397 357.66311646 C40.04847495 359.24919312 38.46401307 360.82792928 36.87890625 362.40625 C35.77290115 363.51360389 34.66719295 364.6212544 33.56176758 365.72918701 C31.25177027 368.04212305 28.93821918 370.35142771 26.62207031 372.65820312 C23.65619939 375.61265351 20.69943411 378.57602869 17.74525452 381.54216385 C15.4669073 383.82774065 13.18381495 386.10852947 10.89926147 388.38790131 C9.80696885 389.47886187 8.71615416 390.57130429 7.62686157 391.66526031 C6.10499029 393.19221777 4.57684258 394.71260594 3.046875 396.23144531 C2.17957764 397.09715149 1.31228027 397.96285767 0.41870117 398.85479736 C-4.52150893 403.26163398 -8.55243041 403.39150531 -15.01953125 403.265625 C-20.24369615 402.70539284 -22.72389972 400.33058682 -26.07421875 396.515625 C-29.03612047 391.96559835 -28.35897004 386.80568755 -28.18359375 381.578125 C-28.16554688 380.55589844 -28.1475 379.53367187 -28.12890625 378.48046875 C-28.08198866 375.97037751 -28.01636104 373.46224736 -27.93359375 370.953125 C-28.68883257 370.95464388 -29.44407138 370.95616276 -30.22219622 370.95772767 C-74.96426173 371.04720179 -119.70631752 371.11585191 -164.44845454 371.15738632 C-169.81833833 371.16238926 -175.18822194 371.16756654 -180.55810547 371.17285156 C-181.62717169 371.1739008 -182.69623792 371.17495005 -183.79770009 371.17603108 C-201.11749923 371.19344564 -218.43724536 371.22498912 -235.75701304 371.26173618 C-253.52309366 371.29911636 -271.28914649 371.32135466 -289.05526483 371.32947898 C-300.02166278 371.33497282 -310.98791093 371.35233685 -321.95426278 371.38479087 C-329.46998215 371.40590266 -336.98562386 371.41233261 -344.50137074 371.40713051 C-348.8403378 371.40456353 -353.17904273 371.40855271 -357.51796341 371.4299469 C-361.48942453 371.44938657 -365.46044681 371.45041205 -369.43192796 371.43672058 C-370.86944991 371.43502798 -372.30699903 371.44012433 -373.74446733 371.45265773 C-387.07013974 371.56209942 -387.07013974 371.56209942 -391.93359375 366.953125 C-396.47641451 361.86092224 -396.52251291 357.45338592 -396.46484375 350.953125 C-396.46867065 349.99921875 -396.47249756 349.0453125 -396.47644043 348.0625 C-396.47915411 346.05207255 -396.47183112 344.04160947 -396.45507812 342.03125 C-396.43366084 338.96273713 -396.45489841 335.89656548 -396.48046875 332.828125 C-396.47782538 330.86978652 -396.4727002 328.9114495 -396.46484375 326.953125 C-396.47294067 326.04046875 -396.4810376 325.1278125 -396.48937988 324.1875 C-396.40803775 318.63232628 -395.77558849 315.25974796 -391.93359375 310.953125 C-387.433379 307.36512322 -384.02012312 306.37225013 -378.38580322 306.44760132 C-377.64608678 306.4415112 -376.90637033 306.43542108 -376.14423823 306.42914641 C-373.6755878 306.41358184 -371.20791261 306.42632052 -368.73925781 306.43896484 C-366.9646392 306.43350196 -365.19002531 306.42625932 -363.41542053 306.41737366 C-359.59637688 306.40204126 -355.77760187 306.39923307 -351.95853424 306.40613937 C-345.90411443 306.41694734 -339.84997357 306.3995139 -333.79559326 306.37832642 C-324.20178856 306.34805639 -314.60806657 306.33637219 -305.01421809 306.33274996 C-287.88150079 306.32611698 -270.74884266 306.29680061 -253.61619544 306.2476536 C-247.61493682 306.23128045 -241.61379848 306.22571488 -235.61251974 306.22924399 C-231.85207268 306.22968573 -228.09166972 306.22204688 -224.33123589 306.21256828 C-222.60690682 306.20991912 -220.88256841 306.21057873 -219.15824318 306.21507835 C-210.48408137 306.23611948 -201.92635905 306.00119506 -193.29705811 305.06607056 C-192.58239608 304.98910867 -191.86773406 304.91214679 -191.13141561 304.83285272 C-171.86187863 302.52232527 -154.14697442 294.13488933 -139.93359375 280.953125 C-139.134375 280.22222656 -138.33515625 279.49132812 -137.51171875 278.73828125 C-122.15608664 264.07829019 -111.11012443 242.55204652 -109.7565918 221.1550293 C-109.11981959 191.25210478 -115.50319303 167.25327652 -136.08984375 144.578125 C-153.80196387 126.11760544 -177.70188884 117.02842226 -202.93359375 115.953125 C-227.77647015 115.5190768 -251.4803375 125.85299825 -269.5234375 142.61328125 C-284.7749008 157.41980721 -292.38900243 174.82743822 -297.93359375 194.953125 C-297.35915527 194.93217773 -296.7847168 194.91123047 -296.19287109 194.88964844 C-293.56496001 194.80598736 -290.93732985 194.7543104 -288.30859375 194.703125 C-286.95314453 194.65285156 -286.95314453 194.65285156 -285.5703125 194.6015625 C-279.80316514 194.51737057 -276.48886304 195.05267567 -271.93359375 198.953125 C-267.51943534 203.59960754 -267.46601114 207.84105566 -267.40234375 213.953125 C-268.45679344 219.90766444 -272.76269642 224.03340043 -276.9140625 228.19238281 C-277.39589996 228.67772491 -277.87773743 229.16306702 -278.37417603 229.66311646 C-279.95152505 231.24919312 -281.53598693 232.82792928 -283.12109375 234.40625 C-284.22709885 235.51360389 -285.33280705 236.6212544 -286.43823242 237.72918701 C-288.74822973 240.04212305 -291.06178082 242.35142771 -293.37792969 244.65820312 C-296.34380061 247.61265351 -299.30056589 250.57602869 -302.25474548 253.54216385 C-304.5330927 255.82774065 -306.81618505 258.10852947 -309.10073853 260.38790131 C-310.19303115 261.47886187 -311.28384584 262.57130429 -312.37313843 263.66526031 C-313.89500971 265.19221777 -315.42315742 266.71260594 -316.953125 268.23144531 C-317.82042236 269.09715149 -318.68771973 269.96285767 -319.58129883 270.85479736 C-323.59745971 274.43735043 -326.45571129 275.26002217 -331.80859375 275.328125 C-332.81664062 275.35648437 -333.8246875 275.38484375 -334.86328125 275.4140625 C-340.87790845 274.5111032 -344.99988345 270.13798245 -349.17285156 265.97265625 C-349.65819366 265.49081879 -350.14353577 265.00898132 -350.64358521 264.51254272 C-352.22966187 262.9351937 -353.80839803 261.35073182 -355.38671875 259.765625 C-356.49407264 258.6596199 -357.60172315 257.5539117 -358.70965576 256.44848633 C-361.0225918 254.13848902 -363.33189646 251.82493793 -365.63867188 249.50878906 C-368.59312226 246.54291814 -371.55649744 243.58615286 -374.5226326 240.63197327 C-376.8082094 238.35362605 -379.08899822 236.0705337 -381.36837006 233.78598022 C-382.45933062 232.6936876 -383.55177304 231.60287291 -384.64572906 230.51358032 C-386.17268652 228.99170904 -387.69307469 227.46356133 -389.21191406 225.93359375 C-390.07762024 225.06629639 -390.94332642 224.19899902 -391.83526611 223.30541992 C-396.24210273 218.36520982 -396.37197406 214.33428834 -396.24609375 207.8671875 C-395.68586159 202.6430226 -393.31105557 200.16281903 -389.49609375 196.8125 C-384.9460671 193.85059828 -379.7861563 194.52774871 -374.55859375 194.703125 C-373.53636719 194.72117188 -372.51414062 194.73921875 -371.4609375 194.7578125 C-368.95084626 194.80473009 -366.44271611 194.87035771 -363.93359375 194.953125 C-363.78664063 193.74140625 -363.6396875 192.5296875 -363.48828125 191.28125 C-359.15346872 157.96598282 -345.79978712 127.90343285 -322.921875 103.12890625 C-321.32652554 101.38311126 -319.83423643 99.62024398 -318.37109375 97.765625 C-299.76251245 76.29418504 -270.97668745 62.05006948 -243.93359375 54.953125 C-243.14017578 54.74139648 -242.34675781 54.52966797 -241.52929688 54.31152344 C-209.77930051 46.23970728 -173.03763278 49.19096647 -142.93359375 61.953125 C-141.63411149 58.14287839 -140.45704546 54.31401238 -139.33666992 50.44775391 C-135.47349478 37.40015533 -129.96482631 26.26936259 -120.93359375 15.953125 C-120.40378906 15.28023437 -119.87398438 14.60734375 -119.328125 13.9140625 C-91.24795445 -20.89148223 -35.56979427 -24.81833848 0 0 Z " fill="#C80A4F" transform="translate(427.93359375,61.046875)"/>
<path d="M0 0 C4.26187285 2.56590957 7.72606132 5.47370594 11.23925781 8.98046875 C11.72459991 9.46230621 12.20994202 9.94414368 12.70999146 10.44058228 C14.29606812 12.0179313 15.87480428 13.60239318 17.453125 15.1875 C18.56047889 16.2935051 19.6681294 17.3992133 20.77606201 18.50463867 C23.08899805 20.81463598 25.39830271 23.12818707 27.70507812 25.44433594 C30.65952851 28.41020686 33.62290369 31.36697214 36.58903885 34.32115173 C38.87461565 36.59949895 41.15540447 38.8825913 43.43477631 41.16714478 C44.52573687 42.2594374 45.61817929 43.35025209 46.71213531 44.43954468 C48.23909277 45.96141596 49.75948094 47.48956367 51.27832031 49.01953125 C52.14402649 49.88682861 53.00973267 50.75412598 53.90167236 51.64770508 C57.48422543 55.66386596 58.30689717 58.52211754 58.375 63.875 C58.40335938 64.88304687 58.43171875 65.89109375 58.4609375 66.9296875 C57.5579782 72.9443147 53.18485745 77.0662897 49.01953125 81.23925781 C48.53769379 81.72459991 48.05585632 82.20994202 47.55941772 82.70999146 C45.9820687 84.29606812 44.39760682 85.87480428 42.8125 87.453125 C41.7064949 88.56047889 40.6007867 89.6681294 39.49536133 90.77606201 C37.18536402 93.08899805 34.87181293 95.39830271 32.55566406 97.70507812 C29.58979314 100.65952851 26.63302786 103.62290369 23.67884827 106.58903885 C21.40050105 108.87461565 19.1174087 111.15540447 16.83285522 113.43477631 C15.7405626 114.52573687 14.64974791 115.61817929 13.56045532 116.71213531 C12.03858404 118.23909277 10.51043633 119.75948094 8.98046875 121.27832031 C8.11317139 122.14402649 7.24587402 123.00973267 6.35229492 123.90167236 C1.41208482 128.30850898 -2.61883666 128.43838031 -9.0859375 128.3125 C-13.05623819 127.88673049 -15.11478723 126.74095213 -18 124 C-22 118 -22 118 -22 96 C-75.13 96 -128.26 96 -183 96 C-183 95.67 -183 95.34 -183 95 C-182.38705078 94.90501221 -181.77410156 94.81002441 -181.14257812 94.7121582 C-141.22454029 88.42364906 -101.65009097 71.70693418 -76 39 C-75.71646164 38.43552155 -75.43292328 37.87104309 -75.14079285 37.28945923 C-73.94429457 35.13514932 -72.85903565 33.63003366 -71 32 C-67.26215235 31.01462985 -63.63594409 31.18367041 -59.79296875 31.31640625 C-58.71243729 31.32631088 -57.63190582 31.33621552 -56.51863098 31.34642029 C-53.07352949 31.38554988 -49.63163535 31.47337576 -46.1875 31.5625 C-43.84965545 31.59761541 -41.51176086 31.62955399 -39.17382812 31.65820312 C-33.44812777 31.73530672 -27.72429299 31.85238213 -22 32 C-22.02094727 31.36497559 -22.04189453 30.72995117 -22.06347656 30.07568359 C-22.14704581 27.17561924 -22.19878774 24.27580884 -22.25 21.375 C-22.28351563 20.37597656 -22.31703125 19.37695312 -22.3515625 18.34765625 C-22.43315123 12.18770715 -22.1132688 8.68372214 -18 4 C-12.87322962 -0.87043186 -6.74482111 -1.1943954 0 0 Z " fill="#F9B300" transform="translate(422,336)"/>
<path d="M0 0 C2.4326433 1.91056917 4.75364666 3.90013189 7.06640625 5.953125 C8.071875 6.74589844 8.071875 6.74589844 9.09765625 7.5546875 C25.17288646 20.5041785 34.86265886 40.85296086 38.06640625 60.953125 C38.49443009 65.63029588 38.41012691 70.27088575 38.06640625 74.953125 C38.741875 74.90671875 39.41734375 74.8603125 40.11328125 74.8125 C47.31067076 74.52127615 47.31067076 74.52127615 50.69140625 76.453125 C52.66542312 80.04224658 53.11907982 83.03965088 52.06640625 86.953125 C50.81298828 88.76879883 50.81298828 88.76879883 49.13671875 90.59765625 C48.50306396 91.29036621 47.86940918 91.98307617 47.21655273 92.69677734 C43.28684492 96.82058336 39.29105257 100.87209734 35.25390625 104.890625 C34.39603516 105.75236328 33.53816406 106.61410156 32.65429688 107.50195312 C31.83509766 108.31986328 31.01589844 109.13777344 30.171875 109.98046875 C29.43090576 110.72031006 28.68993652 111.46015137 27.92651367 112.22241211 C24.92333328 115.01668246 22.37052522 115.4852303 18.25561523 115.41674805 C15.56113993 114.84612146 14.43136316 113.89588868 12.4140625 112.03515625 C11.37668945 111.08213623 11.37668945 111.08213623 10.31835938 110.10986328 C6.20420487 106.16965936 2.1476867 102.17802528 -1.87109375 98.140625 C-2.73283203 97.28275391 -3.59457031 96.42488281 -4.48242188 95.54101562 C-5.30033203 94.72181641 -6.11824219 93.90261719 -6.9609375 93.05859375 C-7.70077881 92.31762451 -8.44062012 91.57665527 -9.20288086 90.81323242 C-12.11124922 87.68742362 -12.29209541 85.18653457 -12.19921875 80.9296875 C-11.93359375 78.953125 -11.93359375 78.953125 -10.49609375 76.453125 C-6.71465647 74.23960074 -3.21283445 74.62395264 1.06640625 74.953125 C-0.56993353 58.44318932 -5.80436564 44.54778025 -18.74609375 33.578125 C-31.8494671 23.74051547 -45.99738785 21.64231226 -61.93359375 22.953125 C-74.10838567 25.26462811 -86.36137307 32.5462877 -93.84375 42.4921875 C-99.25521431 50.64959655 -104.0952858 59.72916475 -104.03125 69.71875 C-104.02802734 70.60820312 -104.02480469 71.49765625 -104.02148438 72.4140625 C-104.01310547 73.33445312 -104.00472656 74.25484375 -103.99609375 75.203125 C-103.99158203 76.13898438 -103.98707031 77.07484375 -103.98242188 78.0390625 C-103.97066293 80.34381541 -103.95422801 82.64843727 -103.93359375 84.953125 C-107.47949693 83.66765747 -110.2370322 82.15142968 -113.24609375 79.890625 C-117.71902981 76.68703566 -122.33213872 73.89756881 -127.12109375 71.203125 C-127.7860083 70.82663818 -128.45092285 70.45015137 -129.13598633 70.06225586 C-133.30789203 67.74130621 -137.51599095 65.76371188 -141.93359375 63.953125 C-139.49128721 45.8286396 -133.05314983 29.7971069 -120.93359375 15.953125 C-120.40378906 15.28023437 -119.87398438 14.60734375 -119.328125 13.9140625 C-91.24795445 -20.89148223 -35.56979427 -24.81833848 0 0 Z " fill="#00A0C8" transform="translate(427.93359375,61.046875)"/>
<path d="M0 0 C1.051875 -0.00515625 2.10375 -0.0103125 3.1875 -0.015625 C4.280625 -0.00015625 5.37375 0.0153125 6.5 0.03125 C8.1396875 0.00804687 8.1396875 0.00804687 9.8125 -0.015625 C10.864375 -0.01046875 11.91625 -0.0053125 13 0 C14.43859375 0.00676758 14.43859375 0.00676758 15.90625 0.01367188 C19.23415453 0.67774921 20.43114553 1.8887123 22.5 4.53125 C22.9765625 7.51953125 22.9765625 7.51953125 23.125 10.84375 C23.61945009 14.79935072 23.95842744 16.91000476 26.59765625 19.9375 C30.47736372 22.79315196 33.53830554 24.37359517 38.3125 25.15625 C41.50170355 24.73025285 41.50170355 24.73025285 43.875 23.03125 C47.74006167 20.82264333 51.17474934 20.36557961 55.5 21.53125 C58.21502859 23.77301672 59.76980651 26.49507023 61.5 29.53125 C62.06074219 30.44519531 62.62148438 31.35914063 63.19921875 32.30078125 C66.11482956 37.26887334 68.04588674 40.63241421 67.5 46.53125 C64.73651144 51.17391078 61.20911059 53.1766947 56.5 55.53125 C55.84 55.53125 55.18 55.53125 54.5 55.53125 C54.5 61.47125 54.5 67.41125 54.5 73.53125 C56.15 74.19125 57.8 74.85125 59.5 75.53125 C63.03398345 77.67935759 65.1936104 79.0716656 67.5 82.53125 C68.34789864 88.28184971 66.02323114 91.94856661 63.1875 96.71875 C62.78337891 97.42966797 62.37925781 98.14058594 61.96289062 98.87304688 C60.07529466 102.1356721 58.36619666 105.02691126 55.5 107.53125 C49.92645746 108.59585925 46.21053077 107.50632207 41.5 104.53125 C36.55636454 103.56190971 33.42386227 104.75872984 29.1875 107.21875 C25.96053056 109.59395526 24.6931076 110.87099827 23.55859375 114.75 C23.08220198 118.18701183 23.08220198 118.18701183 22.9765625 121.54296875 C22.38364117 125.26087709 21.4105414 126.20877431 18.5 128.53125 C15.90625 129.04882812 15.90625 129.04882812 13 129.0625 C11.948125 129.06765625 10.89625 129.0728125 9.8125 129.078125 C8.719375 129.06265625 7.62625 129.0471875 6.5 129.03125 C4.8603125 129.05445313 4.8603125 129.05445313 3.1875 129.078125 C2.135625 129.07296875 1.08375 129.0678125 0 129.0625 C-0.9590625 129.05798828 -1.918125 129.05347656 -2.90625 129.04882812 C-6.23415453 128.38475079 -7.43114553 127.1737877 -9.5 124.53125 C-9.9765625 121.54296875 -9.9765625 121.54296875 -10.125 118.21875 C-10.61945009 114.26314928 -10.95842744 112.15249524 -13.59765625 109.125 C-17.47736372 106.26934804 -20.53830554 104.68890483 -25.3125 103.90625 C-28.50170355 104.33224715 -28.50170355 104.33224715 -30.875 106.03125 C-34.74006167 108.23985667 -38.17474934 108.69692039 -42.5 107.53125 C-45.21502859 105.28948328 -46.76980651 102.56742977 -48.5 99.53125 C-49.06074219 98.61730469 -49.62148437 97.70335937 -50.19921875 96.76171875 C-53.11482956 91.79362666 -55.04588674 88.43008579 -54.5 82.53125 C-51.73651144 77.88858922 -48.20911059 75.8858053 -43.5 73.53125 C-42.84 73.53125 -42.18 73.53125 -41.5 73.53125 C-41.5 67.59125 -41.5 61.65125 -41.5 55.53125 C-43.15 54.87125 -44.8 54.21125 -46.5 53.53125 C-50.03398345 51.38314241 -52.1936104 49.9908344 -54.5 46.53125 C-55.34789864 40.78065029 -53.02323114 37.11393339 -50.1875 32.34375 C-49.78337891 31.63283203 -49.37925781 30.92191406 -48.96289062 30.18945312 C-47.07529466 26.9268279 -45.36619666 24.03558874 -42.5 21.53125 C-36.92645746 20.46664075 -33.21053077 21.55617793 -28.5 24.53125 C-23.55636454 25.50059029 -20.42386227 24.30377016 -16.1875 21.84375 C-12.96053056 19.46854474 -11.6931076 18.19150173 -10.55859375 14.3125 C-10.08220198 10.87548817 -10.08220198 10.87548817 -9.9765625 7.51953125 C-9.04597005 1.68425894 -5.56935589 0.02619993 0 0 Z M-18.5 44.53125 C-24.46043793 53.30881033 -25.2984482 60.99173372 -24.5 71.53125 C-22.65666828 79.6596766 -18.09155791 86.41333399 -11.1875 91.1015625 C-2.56430822 96.06557092 6.54089411 97.10940789 16.359375 94.8828125 C25.30231976 91.63335742 31.21318973 85.99726418 35.58984375 77.64453125 C38.92097632 69.91001313 38.7898904 60.00641844 35.9375 52.15625 C31.97673234 43.72230767 26.02871788 38.20443164 17.5 34.53125 C4.3587309 30.21538057 -9.5428662 34.34002221 -18.5 44.53125 Z " fill="#00A0C8" transform="translate(217.5,207.46875)"/>
<path d="M0 0 C2.2265625 -0.00390625 2.2265625 -0.00390625 5.9140625 0.43359375 C2.66696095 6.16912826 -1.59018162 10.65144157 -6.0859375 15.43359375 C-6.53114746 15.91280273 -6.97635742 16.39201172 -7.43505859 16.88574219 C-30.45762862 41.51150992 -66.65840479 61.35349806 -100.80078125 63.61328125 C-102.563507 63.61947712 -104.32649535 63.5413147 -106.0859375 63.43359375 C-106.0859375 63.10359375 -106.0859375 62.77359375 -106.0859375 62.43359375 C-105.49393555 62.32402344 -104.90193359 62.21445312 -104.29199219 62.1015625 C-89.79759203 59.35349126 -76.52048453 55.53366651 -63.0859375 49.43359375 C-62.37356934 49.11519531 -61.66120117 48.79679687 -60.92724609 48.46875 C-45.99941224 41.71109241 -32.9913466 32.67513245 -21.0859375 21.43359375 C-19.8629893 20.40531894 -18.63433517 19.38376761 -17.3984375 18.37109375 C-12.32611051 14.05066464 -8.08899079 9.12949301 -4.6484375 3.43359375 C-2.0859375 0.43359375 -2.0859375 0.43359375 0 0 Z " fill="#DC9202" transform="translate(353.0859375,367.56640625)"/>
<path d="M0 0 C5.75816031 1.36775199 10.3240357 3.63748589 15.375 6.6875 C16.49165039 7.3525354 16.49165039 7.3525354 17.63085938 8.03100586 C23.40930192 11.52393559 29.20056349 15.20056349 34 20 C34.04092937 22.33297433 34.04241723 24.66705225 34 27 C29.59817976 24.5431701 25.32451225 21.94291321 21.0625 19.25 C13.62927798 14.64105581 5.87086913 10.79903311 -2 7 C-1.42415568 4.61435923 -0.77772405 2.33317216 0 0 Z " fill="#0380A8" transform="translate(288,118)"/>
</svg>
