<?xml version="1.0" encoding="UTF-8"?>
<svg version="1.1" xmlns="http://www.w3.org/2000/svg" width="600" height="600">
<path d="M0 0 C2.4913252 1.17910936 4.89233195 2.42422338 7.28955078 3.78393555 C8.18714111 4.29166504 9.08473145 4.79939453 10.00952148 5.32250977 C10.97204834 5.87181152 11.9345752 6.42111328 12.92626953 6.98706055 C13.94100342 7.56343262 14.9557373 8.13980469 16.0012207 8.73364258 C25.18933594 13.9660287 34.32072583 19.29420609 43.44580078 24.63549805 C49.81942041 28.36336821 56.2150432 32.05249831 62.61376953 35.73706055 C71.95248277 41.11605953 81.27017361 46.52965554 90.57470703 51.9675293 C97.90660676 56.24928177 105.25644191 60.49916993 112.61376953 64.73706055 C121.9524016 70.11620134 131.27017271 75.52965501 140.57470703 80.9675293 C147.90660676 85.24928177 155.25644191 89.49916993 162.61376953 93.73706055 C171.94728375 99.11325341 181.26016476 104.52337461 190.55932617 109.95874023 C199.05207194 114.91884507 207.56907706 119.83629438 216.09619141 124.73706055 C218.07993578 125.87870994 220.04898707 127.04634367 222.00105381 128.24135017 C224.56714449 129.74643708 227.10542322 130.82547206 229.89981747 131.8390789 C234.85123681 133.83418973 239.20578734 136.02345466 242.61376953 140.23706055 C245.61341341 148.09449033 244.80775892 157.05977589 244.58688509 165.32338285 C244.51307307 168.78879254 244.53834072 172.25370555 244.55122375 175.71968079 C244.56011453 181.71604042 244.50704635 187.70924226 244.4111805 193.70480728 C244.27267658 202.37267689 244.22871371 211.0390285 244.20738464 219.70788465 C244.17022925 233.77348756 244.05724211 247.83740907 243.89624023 261.90209961 C243.74005936 275.55989196 243.61979606 289.21722671 243.54760742 302.87573242 C243.54314112 303.71842494 243.53867482 304.56111745 243.53407318 305.4293461 C243.51188663 309.65712905 243.49040381 313.88491523 243.46927083 318.11270356 C243.29319733 353.15535424 242.99392058 388.19605196 242.61376953 423.23706055 C241.82906281 423.68476303 241.04435608 424.13246552 240.23587036 424.59373474 C237.26264347 426.29040883 234.28969678 427.98757197 231.31692505 429.68504333 C230.04184597 430.41299557 228.76666253 431.14076504 227.49136353 431.86833191 C219.13265925 436.63723557 210.79538615 441.44025393 202.48876953 446.29956055 C201.46431732 446.8987178 200.43986511 447.49787506 199.3843689 448.1151886 C198.46491486 448.65298447 197.54546082 449.19078033 196.59814453 449.74487305 C184.87242069 456.59711707 173.0913229 463.35429168 161.32275391 470.13256836 C149.73695187 476.80662366 138.158236 483.49170139 126.61376953 490.23706055 C112.88321765 498.25973566 99.10298987 506.19564313 85.32275391 514.13256836 C72.75352797 521.37312959 60.19863407 528.6366019 47.67431641 535.95458984 C42.39722314 539.03594207 37.11491062 542.10795023 31.82470703 545.16674805 C30.69194336 545.82215576 29.55917969 546.47756348 28.39208984 547.15283203 C26.1486951 548.44431287 23.9007247 549.72788247 21.64794922 551.00292969 C17.0851984 553.59243982 12.60344821 556.15520942 8.35595703 559.2409668 C5.21615783 561.48228997 2.40337891 563.26649135 -1.38623047 564.23706055 C-5.9745651 563.01545298 -9.36617843 560.49665772 -13.15039062 557.75708008 C-17.68517737 554.67413814 -22.57848206 552.17637323 -27.38623047 549.54956055 C-36.34014729 544.56293201 -45.20305554 539.44236908 -54.00976562 534.20092773 C-61.06000616 530.0079365 -68.15127145 525.8904019 -75.26123047 521.79956055 C-83.6516265 516.97138764 -92.02891458 512.12228152 -100.38623047 507.23706055 C-113.02358797 499.85278116 -125.70298452 492.54215858 -138.38623047 485.23706055 C-152.06035227 477.3612533 -165.72360021 469.46850209 -179.34765625 461.50634766 C-187.75803777 456.59465725 -196.19381731 451.72774375 -204.63354492 446.86669922 C-213.29332969 441.87566244 -221.93161945 436.84847961 -230.56005859 431.8034668 C-231.48625 431.26206055 -232.41244141 430.7206543 -233.36669922 430.1628418 C-234.57169067 429.45768433 -234.57169067 429.45768433 -235.80102539 428.73828125 C-238.98674339 426.88834452 -242.18771594 425.06478314 -245.38623047 423.23706055 C-245.38623047 329.84706055 -245.38623047 236.45706055 -245.38623047 140.23706055 C-236.80623047 135.28706055 -228.22623047 130.33706055 -219.38623047 125.23706055 C-210.41633875 120.00464131 -210.41633875 120.00464131 -201.44873047 114.76831055 C-194.01440433 110.4316203 -186.5551332 106.13838813 -179.09716797 101.8425293 C-171.84671506 97.66356897 -164.61139184 93.45958066 -157.38623047 89.23706055 C-143.6557623 81.21424377 -129.87544961 73.27847727 -116.09521484 65.34155273 C-104.50941281 58.66749743 -92.93069694 51.9824197 -81.38623047 45.23706055 C-73.10840938 40.40038174 -64.81682139 35.58840332 -56.51123047 30.79956055 C-55.43897217 30.18129395 -54.36671387 29.56302734 -53.26196289 28.92602539 C-47.67360468 25.70507688 -42.08326893 22.48758648 -36.49169922 19.2722168 C-35.3619165 18.62172363 -34.23213379 17.97123047 -33.06811523 17.30102539 C-30.84979042 16.02445589 -28.63025604 14.74998561 -26.40942383 13.4777832 C-21.7540186 10.80229591 -17.12709834 8.10917113 -12.59716797 5.2253418 C-11.90324951 4.78754395 -11.20933105 4.34974609 -10.49438477 3.89868164 C-8.73318078 2.77618555 -6.98664174 1.63076597 -5.24169922 0.4831543 C-2.38623047 -0.76293945 -2.38623047 -0.76293945 0 0 Z " fill="#EDEDED" transform="translate(298.38623046875,17.762939453125)"/>
<path d="M0 0 C0.73351816 -0.00382555 1.46703633 -0.00765109 2.22278231 -0.01159257 C4.6816093 -0.02191435 7.1402024 -0.01793199 9.5990448 -0.01396179 C11.36165585 -0.01830879 13.124265 -0.0234919 14.88687134 -0.02944946 C19.67622919 -0.04285377 24.46550819 -0.04341641 29.25488114 -0.04088616 C33.25332166 -0.03981716 37.25174619 -0.04469814 41.25018328 -0.04949158 C50.68484198 -0.06059227 60.11946086 -0.06102138 69.55412292 -0.05497742 C79.28460134 -0.0489397 89.01493508 -0.06124223 98.74538881 -0.08254749 C107.10050847 -0.10016823 115.45558211 -0.10616399 123.81071967 -0.10290974 C128.80034452 -0.10109709 133.78986624 -0.10373107 138.77947426 -0.11762428 C143.47364227 -0.13020523 148.16758507 -0.12825595 152.86174965 -0.11521339 C154.58263729 -0.11284844 156.30354079 -0.1155794 158.02441025 -0.12383652 C160.37794338 -0.13431302 162.73072214 -0.1261965 165.08422852 -0.11352539 C166.39996259 -0.11369313 167.71569666 -0.11386087 169.07130146 -0.1140337 C173.79521797 0.36945562 177.83189872 1.58587227 181.47477722 4.79585266 C184.90914445 9.42632709 185.85788381 11.49716838 185.73258972 17.26069641 C186.42997253 17.38186829 187.12735535 17.50304016 187.84587097 17.62788391 C201.95372999 20.72054042 215.3902794 28.68251347 223.45524597 40.86225891 C228.58328345 49.8079754 231.2096161 58.43944856 231.07316589 68.74946594 C231.07360397 69.63850113 231.07404205 70.52753632 231.07449341 71.44351196 C231.07242527 74.34374474 231.04918873 77.24337878 231.02555847 80.14350891 C231.01995547 82.16945581 231.0156887 84.19540681 231.01269531 86.22135925 C231.00130196 91.52485089 230.9718827 96.82809169 230.93858337 102.13148499 C230.90776313 107.55472929 230.89416453 112.97801456 230.8790741 118.40132141 C230.84700731 129.02122261 230.79587831 139.64093856 230.73258972 150.26069641 C231.35133972 150.52882141 231.97008972 150.79694641 232.60758972 151.07319641 C234.73258972 152.26069641 234.73258972 152.26069641 236.73258972 155.26069641 C237.19001227 162.46510155 237.19001227 162.46510155 235.72868347 165.00679016 C234.23451991 168.38770145 234.48371009 171.75875402 234.54508972 175.38569641 C234.54790955 176.14616272 234.55072937 176.90662903 234.55363464 177.69013977 C234.59447955 181.81547553 234.88322469 185.74381673 235.54508972 189.82319641 C236.10278036 194.35443287 234.77262694 196.95091344 232.25212097 200.66694641 C229.36992232 203.68992083 226.99137194 204.23147906 222.85758972 204.69819641 C219.24755987 204.55675867 216.64671274 203.71224314 213.92008972 201.17085266 C211.35898394 197.05117921 211.1711793 192.00200098 210.73258972 187.26069641 C207.71198713 187.80478578 207.71198713 187.80478578 205.48258972 189.76069641 C202.65885448 192.1810409 199.32811998 192.40087303 195.73258972 192.26069641 C193.30195635 191.12295313 191.61445076 190.14255745 189.73258972 188.26069641 C189.11339542 183.53045796 189.15850538 179.63717297 191.79508972 175.57319641 C194.0308517 172.43190494 194.0308517 172.43190494 193.60758972 169.01069641 C192.81718384 166.08825455 192.81718384 166.08825455 190.73258972 163.26069641 C190.29508972 159.94819641 190.29508972 159.94819641 190.73258972 156.26069641 C191.55425125 155.35851883 192.37591278 154.45634125 193.22247314 153.52682495 C196.25176642 150.05853369 196.42432705 146.79001289 196.33195496 142.31513977 C196.33786903 141.15544426 196.33786903 141.15544426 196.34390259 139.97232056 C196.3505849 137.43105581 196.32151286 134.891611 196.29118347 132.35054016 C196.28693017 130.5774775 196.28460444 128.80440925 196.28411865 127.03134155 C196.2779627 123.32164643 196.25530785 119.61255735 196.21965027 115.9030304 C196.17434568 111.1527679 196.15962184 106.40305317 196.15591335 101.65259457 C196.15148062 97.993679 196.13616997 94.33487786 196.11703682 90.67601204 C196.10817102 88.92456056 196.10143308 87.17309695 196.09687614 85.42162895 C196.08781273 82.97316441 196.0654048 80.52518969 196.03898621 78.07685852 C196.03832153 77.35620209 196.03765686 76.63554565 196.03697205 75.89305115 C195.97812559 71.93263423 195.58926439 68.78742622 193.73258972 65.26069641 C191.882765 64.00242519 191.882765 64.00242519 189.73258972 63.26069641 C188.3953608 62.6018785 187.06144532 61.93624434 185.73258972 61.26069641 C185.7353551 61.87876726 185.73812048 62.49683811 185.74096966 63.13363838 C185.80726199 78.1821198 185.85688606 93.23055632 185.88802624 108.27914619 C185.90348619 115.5565783 185.92455895 122.83391286 185.95890808 130.11128235 C185.98883725 136.4552482 186.00817106 142.79914338 186.01485521 149.14317787 C186.01876155 152.50141071 186.02792353 155.85944143 186.04977989 159.21760941 C186.07153231 162.96923598 186.07455747 166.72044278 186.07316589 170.47212219 C186.08395172 171.5819899 186.09473755 172.6918576 186.10585022 173.83535767 C186.08356075 179.38266071 185.95338965 183.5139087 182.73258972 188.26069641 C175.06396347 195.33942834 171.38008698 194.26069641 159.73258972 194.26069641 C159.73258972 208.45069641 159.73258972 222.64069641 159.73258972 237.26069641 C163.36258972 237.26069641 166.99258972 237.26069641 170.73258972 237.26069641 C177.31259983 240.45670132 182.29408608 244.28982699 184.85758972 251.36616516 C185.88035228 255.91837174 185.95483132 260.05678006 185.85758972 264.69819641 C185.84856628 265.52513 185.83954285 266.3520636 185.83024597 267.20405579 C185.80690484 269.22306349 185.77104261 271.24191997 185.73258972 273.26069641 C178.3170083 273.3887044 170.90171736 273.47554846 163.48527527 273.53535461 C160.9685654 273.56031718 158.45192666 273.59429945 155.93547058 273.63789368 C128.58750075 274.09939406 128.58750075 274.09939406 116.73258972 268.26069641 C114.26354316 265.79164985 115.54707926 259.20424261 115.54508972 255.88569641 C115.53284363 254.81835266 115.52059753 253.75100891 115.50798035 252.65132141 C115.50604675 251.62780579 115.50411316 250.60429016 115.50212097 249.54975891 C115.49801208 248.60825989 115.4939032 247.66676086 115.4896698 246.69673157 C115.73258972 244.26069641 115.73258972 244.26069641 117.73258972 241.26069641 C118.05912667 239.06119554 118.05912667 239.06119554 118.05143738 236.60566711 C118.07149841 235.65180115 118.09155945 234.69793518 118.11222839 233.71516418 C118.12926819 232.21596436 118.12926819 232.21596436 118.14665222 230.68647766 C118.16429626 229.76556335 118.18194031 228.84464905 118.20011902 227.89582825 C118.26319403 224.45512872 118.3093752 221.01413626 118.35758972 217.57319641 C118.48133972 209.88007141 118.60508972 202.18694641 118.73258972 194.26069641 C95.63258972 194.26069641 72.53258972 194.26069641 48.73258972 194.26069641 C48.85633972 201.93319641 48.98008972 209.60569641 49.10758972 217.51069641 C49.14158875 219.92801086 49.17558777 222.34532532 49.21061707 224.83589172 C49.24582517 226.75354909 49.28174666 228.67119356 49.31852722 230.58882141 C49.32988708 231.583172 49.34124695 232.57752258 49.35295105 233.602005 C49.37301208 234.55575012 49.39307312 235.50949524 49.41374207 236.49214172 C49.42706573 237.31820923 49.4403894 238.14427673 49.45411682 238.99537659 C49.75883186 241.4741708 50.56241144 243.07564527 51.73258972 245.26069641 C51.9596405 247.73432922 51.9596405 247.73432922 51.92790222 250.46382141 C51.92145691 251.44350891 51.9150116 252.42319641 51.90837097 253.43257141 C51.88323425 254.95624329 51.88323425 254.95624329 51.85758972 256.51069641 C51.84856628 257.54194641 51.83954285 258.57319641 51.83024597 259.63569641 C51.80670983 262.17759928 51.77382995 264.71902921 51.73258972 267.26069641 C37.48974635 274.6171029 23.43722217 273.96330551 7.73258972 273.63569641 C5.20397587 273.60553982 2.67532712 273.57817416 0.14665222 273.55366516 C-5.99214173 273.48816976 -12.12960891 273.38827797 -18.26741028 273.26069641 C-18.38501743 270.09435005 -18.45512052 266.92857567 -18.51741028 263.76069641 C-18.5509259 262.87382141 -18.58444153 261.98694641 -18.61897278 261.07319641 C-18.72650401 253.76107289 -17.16354537 248.44644501 -12.19709778 242.98335266 C-11.5190509 242.4355011 -10.84100403 241.88764954 -10.14241028 241.32319641 C-9.45920715 240.75729797 -8.77600403 240.19139954 -8.07209778 239.60835266 C-2.56909125 235.49896467 -1.65765577 237.26069641 7.73258972 237.26069641 C7.73258972 223.07069641 7.73258972 208.88069641 7.73258972 194.26069641 C3.11258972 194.26069641 -1.50741028 194.26069641 -6.26741028 194.26069641 C-12.39194477 191.52948509 -15.7899848 188.63688879 -18.26741028 182.26069641 C-18.82646699 178.3192654 -18.77362644 174.4254454 -18.72151184 170.45039368 C-18.72209595 169.27894302 -18.72268005 168.10749237 -18.72328186 166.90054321 C-18.72050319 163.04242451 -18.68941949 159.18508581 -18.65803528 155.32710266 C-18.65057212 152.64666435 -18.64468271 149.9662688 -18.6408844 147.28582764 C-18.62847898 140.96063546 -18.59569082 134.63572163 -18.55548644 128.31065172 C-18.51069249 121.1063128 -18.48876261 113.9019602 -18.4687047 106.69751656 C-18.42695569 91.88510118 -18.35665141 77.07290366 -18.26741028 62.26069641 C-22.85639179 63.90885283 -25.85507903 65.94644324 -28.26741028 70.26069641 C-28.7537643 73.10892396 -28.95441268 75.35436614 -28.91438293 78.19038391 C-28.92314453 78.96190796 -28.93190613 79.73343201 -28.94093323 80.52833557 C-28.96284141 83.06470396 -28.94840649 85.59931202 -28.93147278 88.13569641 C-28.93484342 89.90637037 -28.9396981 91.67704207 -28.94596863 93.44770813 C-28.95332828 97.15317377 -28.94266407 100.85803552 -28.91926575 104.56343079 C-28.89077809 109.30499848 -28.90718699 114.04515106 -28.93712807 118.78666687 C-28.95522584 122.44138688 -28.94943174 126.09577329 -28.93648911 129.75050354 C-28.93316192 131.49834868 -28.93721794 133.24622446 -28.94888687 134.99403381 C-28.96163716 137.44050409 -28.94216368 139.88470688 -28.91438293 142.33100891 C-28.92450409 143.04807007 -28.93462524 143.76513123 -28.9450531 144.50392151 C-28.82580497 150.19359039 -26.92865977 152.25220262 -23.26741028 156.26069641 C-22.7041166 160.2741639 -22.70920172 162.34523438 -24.82991028 165.82319641 C-26.52112778 168.20200852 -26.52112778 168.20200852 -26.20491028 171.13569641 C-25.40706248 173.79518906 -24.62951853 175.45079589 -23.20491028 177.76069641 C-21.21513235 181.06241584 -20.57278955 183.3534548 -21.26741028 187.26069641 C-24.12188441 190.7812145 -26.06823677 192.12494092 -30.57991028 192.63569641 C-35.20870011 192.16497202 -36.22630823 190.63056625 -39.26741028 187.26069641 C-41.44087596 186.39950507 -41.44087596 186.39950507 -43.26741028 186.26069641 C-43.20553528 187.27132141 -43.14366028 188.28194641 -43.07991028 189.32319641 C-43.34283194 194.8445512 -44.75292767 198.57313008 -48.45491028 202.69819641 C-52.1157304 204.73198537 -55.22151008 205.04454009 -59.26741028 204.26069641 C-62.60774788 202.59052761 -64.6113096 201.27467019 -66.64241028 198.13569641 C-67.86003314 192.53463123 -67.54751233 186.85110983 -66.76741028 181.19819641 C-65.86483322 174.09040208 -65.37109906 169.42985584 -69.26741028 163.26069641 C-69.76741028 159.82319641 -69.76741028 159.82319641 -69.26741028 156.26069641 C-68.44438919 155.37741165 -67.6213681 154.49412689 -66.77340698 153.58407593 C-63.47059922 149.78678761 -63.58067373 146.39289474 -63.67146301 141.52412415 C-63.66740448 140.66630844 -63.66334595 139.80849274 -63.65916443 138.92468262 C-63.65365984 137.0684654 -63.65962009 135.21218605 -63.67582512 133.35603142 C-63.7013273 130.40690603 -63.69641796 127.45917323 -63.68392944 124.50997925 C-63.66319955 118.23923137 -63.68281802 111.96891567 -63.70491028 105.69819641 C-63.72609338 98.45092709 -63.73038888 91.20411059 -63.70440865 83.95685005 C-63.70107862 81.07142718 -63.72217072 78.1868932 -63.74481201 75.30157471 C-63.77300873 58.70312225 -60.69388512 45.27121963 -49.14241028 32.57319641 C-42.22413882 26.1490872 -34.29175984 21.56968849 -25.14241028 19.32319641 C-20.83089192 18.30167102 -20.83089192 18.30167102 -17.96272278 15.23335266 C-17.23275532 12.89953109 -17.23275532 12.89953109 -16.79475403 10.51460266 C-15.8252299 6.37078473 -13.07807419 3.47477615 -9.56146717 1.11683369 C-6.3205815 -0.09265813 -3.45687339 0.00539822 0 0 Z " fill="#EA5D0D" transform="translate(212.2674102783203,206.7393035888672)"/>
<path d="M0 0 C2.4913252 1.17910936 4.89233195 2.42422338 7.28955078 3.78393555 C8.18714111 4.29166504 9.08473145 4.79939453 10.00952148 5.32250977 C10.97204834 5.87181152 11.9345752 6.42111328 12.92626953 6.98706055 C13.94100342 7.56343262 14.9557373 8.13980469 16.0012207 8.73364258 C25.18933594 13.9660287 34.32072583 19.29420609 43.44580078 24.63549805 C49.81942041 28.36336821 56.2150432 32.05249831 62.61376953 35.73706055 C71.95248277 41.11605953 81.27017361 46.52965554 90.57470703 51.9675293 C97.90660676 56.24928177 105.25644191 60.49916993 112.61376953 64.73706055 C121.9524016 70.11620134 131.27017271 75.52965501 140.57470703 80.9675293 C147.90660676 85.24928177 155.25644191 89.49916993 162.61376953 93.73706055 C171.94728375 99.11325341 181.26016476 104.52337461 190.55932617 109.95874023 C199.05207194 114.91884507 207.56907706 119.83629438 216.09619141 124.73706055 C218.07993578 125.87870994 220.04898707 127.04634367 222.00105381 128.24135017 C224.56714449 129.74643708 227.10542322 130.82547206 229.89981747 131.8390789 C234.85123681 133.83418973 239.20578734 136.02345466 242.61376953 140.23706055 C245.61341341 148.09449033 244.80775892 157.05977589 244.58688509 165.32338285 C244.51307307 168.78879254 244.53834072 172.25370555 244.55122375 175.71968079 C244.56011453 181.71604042 244.50704635 187.70924226 244.4111805 193.70480728 C244.27267658 202.37267689 244.22871371 211.0390285 244.20738464 219.70788465 C244.17022925 233.77348756 244.05724211 247.83740907 243.89624023 261.90209961 C243.74005936 275.55989196 243.61979606 289.21722671 243.54760742 302.87573242 C243.54314112 303.71842494 243.53867482 304.56111745 243.53407318 305.4293461 C243.51188663 309.65712905 243.49040381 313.88491523 243.46927083 318.11270356 C243.29319733 353.15535424 242.99392058 388.19605196 242.61376953 423.23706055 C241.82906281 423.68476303 241.04435608 424.13246552 240.23587036 424.59373474 C237.26264347 426.29040883 234.28969678 427.98757197 231.31692505 429.68504333 C230.04184597 430.41299557 228.76666253 431.14076504 227.49136353 431.86833191 C219.13265925 436.63723557 210.79538615 441.44025393 202.48876953 446.29956055 C201.46431732 446.8987178 200.43986511 447.49787506 199.3843689 448.1151886 C198.46491486 448.65298447 197.54546082 449.19078033 196.59814453 449.74487305 C184.87242069 456.59711707 173.0913229 463.35429168 161.32275391 470.13256836 C149.73695187 476.80662366 138.158236 483.49170139 126.61376953 490.23706055 C112.88321765 498.25973566 99.10298987 506.19564313 85.32275391 514.13256836 C72.75352797 521.37312959 60.19863407 528.6366019 47.67431641 535.95458984 C42.39722314 539.03594207 37.11491062 542.10795023 31.82470703 545.16674805 C30.69194336 545.82215576 29.55917969 546.47756348 28.39208984 547.15283203 C26.1486951 548.44431287 23.9007247 549.72788247 21.64794922 551.00292969 C17.0851984 553.59243982 12.60344821 556.15520942 8.35595703 559.2409668 C5.21615783 561.48228997 2.40337891 563.26649135 -1.38623047 564.23706055 C-5.9745651 563.01545298 -9.36617843 560.49665772 -13.15039062 557.75708008 C-17.68517737 554.67413814 -22.57848206 552.17637323 -27.38623047 549.54956055 C-36.34014729 544.56293201 -45.20305554 539.44236908 -54.00976562 534.20092773 C-61.06000616 530.0079365 -68.15127145 525.8904019 -75.26123047 521.79956055 C-83.6516265 516.97138764 -92.02891458 512.12228152 -100.38623047 507.23706055 C-113.02358797 499.85278116 -125.70298452 492.54215858 -138.38623047 485.23706055 C-152.06035227 477.3612533 -165.72360021 469.46850209 -179.34765625 461.50634766 C-187.75803777 456.59465725 -196.19381731 451.72774375 -204.63354492 446.86669922 C-213.29332969 441.87566244 -221.93161945 436.84847961 -230.56005859 431.8034668 C-231.48625 431.26206055 -232.41244141 430.7206543 -233.36669922 430.1628418 C-234.57169067 429.45768433 -234.57169067 429.45768433 -235.80102539 428.73828125 C-238.98674339 426.88834452 -242.18771594 425.06478314 -245.38623047 423.23706055 C-245.38623047 329.84706055 -245.38623047 236.45706055 -245.38623047 140.23706055 C-236.80623047 135.28706055 -228.22623047 130.33706055 -219.38623047 125.23706055 C-210.41633875 120.00464131 -210.41633875 120.00464131 -201.44873047 114.76831055 C-194.01440433 110.4316203 -186.5551332 106.13838813 -179.09716797 101.8425293 C-171.84671506 97.66356897 -164.61139184 93.45958066 -157.38623047 89.23706055 C-143.6557623 81.21424377 -129.87544961 73.27847727 -116.09521484 65.34155273 C-104.50941281 58.66749743 -92.93069694 51.9824197 -81.38623047 45.23706055 C-73.10840938 40.40038174 -64.81682139 35.58840332 -56.51123047 30.79956055 C-55.43897217 30.18129395 -54.36671387 29.56302734 -53.26196289 28.92602539 C-47.67360468 25.70507688 -42.08326893 22.48758648 -36.49169922 19.2722168 C-35.3619165 18.62172363 -34.23213379 17.97123047 -33.06811523 17.30102539 C-30.84979042 16.02445589 -28.63025604 14.74998561 -26.40942383 13.4777832 C-21.7540186 10.80229591 -17.12709834 8.10917113 -12.59716797 5.2253418 C-11.90324951 4.78754395 -11.20933105 4.34974609 -10.49438477 3.89868164 C-8.73318078 2.77618555 -6.98664174 1.63076597 -5.24169922 0.4831543 C-2.38623047 -0.76293945 -2.38623047 -0.76293945 0 0 Z M-8.11279297 26.67456055 C-9.04849121 27.23199951 -9.98418945 27.78943848 -10.94824219 28.36376953 C-11.95902832 28.98195557 -12.96981445 29.6001416 -14.01123047 30.23706055 C-16.19300076 31.54131852 -18.37531071 32.84467409 -20.55810547 34.1472168 C-22.2509668 35.16452881 -22.2509668 35.16452881 -23.97802734 36.20239258 C-29.37029155 39.42152796 -34.81545406 42.54710297 -40.26123047 45.67456055 C-42.44627467 46.93341763 -44.63116968 48.19253372 -46.81591797 49.4519043 C-47.90098633 50.07693848 -48.98605469 50.70197266 -50.10400391 51.34594727 C-55.53282989 54.47386203 -60.95942328 57.60564503 -66.38623047 60.73706055 C-68.5528863 61.98707934 -70.71955297 63.23707933 -72.88623047 64.48706055 C-73.95873047 65.10581055 -75.03123047 65.72456055 -76.13623047 66.36206055 C-163.88623047 116.98706055 -163.88623047 116.98706055 -167.13891602 118.86352539 C-169.2967285 120.10847336 -171.454444 121.35358945 -173.61206055 122.59887695 C-179.16339639 125.80258705 -184.71659588 129.00299685 -190.27294922 132.19799805 C-204.40903102 140.32261104 -204.40903102 140.32261104 -218.44873047 148.61206055 C-219.35981567 149.15709229 -219.35981567 149.15709229 -220.28930664 149.71313477 C-222.99003496 151.27127516 -222.99003496 151.27127516 -225.38623047 153.23706055 C-225.49780875 154.60850259 -225.54113793 155.98557214 -225.5567646 157.36145687 C-225.56923953 158.25599699 -225.58171446 159.15053711 -225.59456742 160.0721845 C-225.60325061 161.06631512 -225.61193381 162.06044575 -225.62088013 163.08470154 C-225.63372917 164.13205681 -225.64657821 165.17941209 -225.65981662 166.2585054 C-225.70154568 169.7974619 -225.73567928 173.33644822 -225.76953125 176.87548828 C-225.79705682 179.40125244 -225.82479196 181.92701433 -225.85272217 184.45277405 C-226.0982435 207.54056629 -226.23787827 230.62935091 -226.34916878 253.71813869 C-226.36433638 256.8096525 -226.37979392 259.9011647 -226.39550781 262.99267578 C-226.39940159 263.76106579 -226.40329536 264.52945579 -226.40730713 265.32113034 C-226.47214012 277.75664903 -226.59994364 290.19073865 -226.75196351 302.62546336 C-226.90674571 315.3923674 -226.99684801 328.15852837 -227.02640522 340.9263435 C-227.04659712 348.80111832 -227.11637251 356.67219574 -227.2501639 364.54587311 C-227.34736054 370.58896348 -227.35405213 376.62875212 -227.32735443 382.6727047 C-227.3304312 385.14722309 -227.36257431 387.6219051 -227.42618179 390.09560776 C-228.23025354 402.33846302 -228.23025354 402.33846302 -223.72817945 413.18999028 C-219.70444031 416.48310003 -215.29743025 418.54966058 -210.46787429 420.39809525 C-207.42307599 421.62524088 -204.75267232 423.25825601 -201.95263672 424.9675293 C-199.95176426 426.12061886 -197.95045653 427.27295344 -195.94873047 428.42456055 C-193.70002096 429.72011335 -191.45132339 431.01568686 -189.20263672 432.3112793 C-188.0735791 432.9614502 -186.94452148 433.61162109 -185.78125 434.28149414 C-180.31453067 437.43038108 -174.8504816 440.58389318 -169.38623047 443.73706055 C-167.21957736 444.98708405 -165.05291067 446.23708401 -162.88623047 447.48706055 C-158.55289714 449.98706055 -154.2195638 452.48706055 -149.88623047 454.98706055 C-148.81356934 455.60589111 -147.7409082 456.22472168 -146.63574219 456.86230469 C-144.47065976 458.11141573 -142.30562065 459.36060184 -140.140625 460.60986328 C-134.70007341 463.74908364 -129.25875831 466.88696617 -123.81591797 470.0222168 C-113.36416847 476.04453383 -102.92323499 482.08375392 -92.51123047 488.17456055 C-83.83360806 493.24981178 -75.12017479 498.25964821 -66.38623047 503.23706055 C-58.63910736 507.65209054 -50.90083227 512.08043497 -43.20336914 516.58178711 C-41.25642511 517.7185142 -39.30610009 518.84947195 -37.35229492 519.97436523 C-32.58584494 522.72762407 -27.87783878 525.53668894 -23.25585938 528.52513123 C-20.94143075 530.01405537 -18.60570679 531.46743686 -16.26690674 532.91769409 C-14.61567555 533.96056911 -12.99517314 535.05160452 -11.37597656 536.14355469 C-8.34249019 538.01037117 -5.84951793 539.39522688 -2.38623047 540.23706055 C1.90367833 539.10858536 5.0427719 536.80212046 8.61376953 534.23706055 C10.35495433 533.23544686 12.10898285 532.25581003 13.87548828 531.29956055 C15.68485626 530.28010012 17.49342151 529.25921395 19.30126953 528.23706055 C20.28893311 527.67873535 21.27659668 527.12041016 22.29418945 526.54516602 C30.37539549 521.9639661 38.40634015 517.2999275 46.42358398 512.60791016 C57.03188002 506.39986455 67.680939 500.26326334 78.33154297 494.12817383 C83.76036895 491.00025906 89.18696234 487.86847607 94.61376953 484.73706055 C96.78042536 483.48704176 98.94709203 482.23704176 101.11376953 480.98706055 C102.18626953 480.36831055 103.25876953 479.74956055 104.36376953 479.11206055 C166.11376953 443.48706055 166.11376953 443.48706055 169.36767578 441.60986328 C171.52138673 440.36730035 173.6750332 439.12462566 175.82861328 437.88183594 C180.85061215 434.98391432 185.8731976 432.08702706 190.89819336 429.19430542 C192.66422475 428.17758856 194.43004384 427.16050396 196.19580078 426.14331055 C198.40111108 424.87305182 200.60681169 423.60347037 202.81298828 422.3347168 C203.81974609 421.75463867 204.82650391 421.17456055 205.86376953 420.5769043 C207.17087891 419.82461548 207.17087891 419.82461548 208.50439453 419.05712891 C209.53048828 418.45650635 210.55658203 417.85588379 211.61376953 417.23706055 C212.8244393 416.68146102 212.8244393 416.68146102 214.05956703 416.11463726 C219.30975266 413.58791303 219.30975266 413.58791303 222.55110633 409.00051236 C222.91649341 406.21822554 222.96174908 403.58061941 222.90379333 400.77468872 C222.93036824 399.19513092 222.93036824 399.19513092 222.95748001 397.58366287 C223.00440371 394.05420077 222.97982539 390.52890329 222.95532227 386.99926758 C222.97378401 384.46948981 222.99645564 381.93973978 223.02302551 379.41003418 C223.0754123 373.25147139 223.08059939 367.09444752 223.06197416 360.93573608 C223.04758335 355.9291577 223.05162215 350.92291483 223.06874275 345.9163475 C223.07114125 345.20342703 223.07353975 344.49050655 223.07601093 343.75598242 C223.08092517 342.30761139 223.08586442 340.85924044 223.09082843 339.41086958 C223.13485368 325.83132647 223.11526652 312.25242734 223.07547242 298.67290865 C223.0409176 286.25588771 223.08140579 273.84046476 223.15811097 261.4236746 C223.23631896 248.66769656 223.26646668 235.91245988 223.24362332 223.15624893 C223.23156994 215.99705908 223.23797961 208.83906968 223.29391289 201.68005753 C223.34583751 194.94680527 223.3293962 188.21705028 223.2671032 181.48373413 C223.25471105 179.01343604 223.26446702 176.54291238 223.29802322 174.07281113 C224.02833392 162.27756073 224.02833392 162.27756073 220.35778737 151.49150038 C216.90786953 148.31933846 212.99316485 146.83765252 208.61376953 145.23706055 C206.57858327 144.09508599 204.56049529 142.92141435 202.57080078 141.7019043 C200.52372479 140.52420705 198.47551132 139.34848517 196.42626953 138.17456055 C194.72334172 137.19554941 193.02041573 136.21653507 191.31759644 135.23733521 C189.56981493 134.23258756 187.82156357 133.2286614 186.07324219 132.22485352 C180.58237716 129.06983425 175.09829608 125.90308091 169.61376953 122.73706055 C167.44713812 121.48699943 165.28047139 120.23699955 163.11376953 118.98706055 C46.11376953 51.48706055 46.11376953 51.48706055 42.85839844 49.60864258 C40.71000441 48.36939588 38.56124628 47.13078019 36.41210938 45.89282227 C31.32603036 42.96208423 26.24396724 40.02494638 21.17462158 37.06536865 C18.77557383 35.66527886 16.37444543 34.2687796 13.97314453 32.87255859 C12.27578727 31.88362818 10.58146051 30.88950216 8.88720703 29.89526367 C7.86111328 29.29907227 6.83501953 28.70288086 5.77783203 28.08862305 C4.42359131 27.29705811 4.42359131 27.29705811 3.04199219 26.48950195 C-1.69488306 24.04629162 -3.47332914 23.86331746 -8.11279297 26.67456055 Z " fill="#E8591E" transform="translate(298.38623046875,17.762939453125)"/>
<path d="M0 0 C1.00370636 -0.0071553 2.00741272 -0.01431061 3.04153442 -0.02168274 C4.1418399 -0.02437164 5.24214539 -0.02706055 6.37579346 -0.02983093 C7.53541595 -0.03640213 8.69503845 -0.04297333 9.88980103 -0.04974365 C13.7357184 -0.06948959 17.58159671 -0.08114194 21.42755127 -0.09111023 C22.73997047 -0.09518576 24.05238968 -0.09926128 25.40457916 -0.10346031 C31.63401047 -0.12250739 37.86342996 -0.13673882 44.09288478 -0.14507228 C51.27528819 -0.15484005 58.45738304 -0.18114917 65.63967776 -0.22157317 C71.19649218 -0.25177133 76.75321833 -0.26654468 82.31011319 -0.26985329 C85.62648417 -0.27219982 88.94245064 -0.28309128 92.25875092 -0.30631447 C95.96207797 -0.33063671 99.66459864 -0.32975294 103.36798096 -0.32279968 C104.46018951 -0.33560974 105.55239807 -0.3484198 106.67770386 -0.36161804 C113.06220729 -0.31793977 116.93934163 0.34323582 122.13067627 4.14717102 C126.01464267 8.43997599 127.2514437 10.84879739 127.30767822 16.57148743 C127.32693108 18.27433395 127.32693108 18.27433395 127.34657288 20.01158142 C127.35395981 21.24484161 127.36134674 22.47810181 127.36895752 23.74873352 C127.37702927 25.01430084 127.38510101 26.27986816 127.39341736 27.58378601 C127.40727153 30.26885142 127.41828289 32.95379352 127.42584229 35.63887024 C127.43686528 39.06186358 127.47121375 42.48419936 127.51101398 45.90696144 C127.54361985 49.18748636 127.5479724 52.46807128 127.55645752 55.74873352 C127.57396561 56.96984833 127.59147369 58.19096313 127.60951233 59.44908142 C127.57684052 72.33819541 127.57684052 72.33819541 123.13067627 77.14717102 C117.02125974 81.73066045 111.70234164 81.71942913 104.23199463 81.66474915 C102.46001457 81.67526306 102.46001457 81.67526306 100.65223694 81.68598938 C97.42898663 81.7005289 94.2063986 81.69719114 90.98315883 81.68447304 C87.60137399 81.67430399 84.21963153 81.68374928 80.83784485 81.6900177 C75.16120529 81.69728183 69.48477434 81.68773804 63.8081665 81.6686554 C57.2545244 81.64687827 50.70137994 81.65394864 44.14774984 81.67596102 C38.50930184 81.69413794 32.87100327 81.69666255 27.23253542 81.68620634 C23.86994146 81.67998524 20.50758112 81.67909747 17.14500237 81.69235229 C13.39631368 81.70251115 9.64858088 81.68702434 5.89996338 81.66474915 C4.79174225 81.67284607 3.68352112 81.68094299 2.54171753 81.68928528 C-3.58342986 81.62186053 -7.22006375 81.26136544 -11.86932373 77.14717102 C-15.74868968 72.74356643 -16.9904691 70.41857574 -17.04632568 64.59931946 C-17.06557854 62.85675873 -17.06557854 62.85675873 -17.08522034 61.07899475 C-17.09260727 59.81758667 -17.0999942 58.55617859 -17.10760498 57.25654602 C-17.11567673 55.96403931 -17.12374847 54.67153259 -17.13206482 53.33985901 C-17.14709371 50.59936148 -17.15692996 47.85888988 -17.16448975 45.11836243 C-17.17553597 41.61671005 -17.20991352 38.11569637 -17.24966145 34.61426926 C-17.28218095 31.26588753 -17.28661153 27.91757344 -17.29510498 24.56904602 C-17.31261307 23.31573486 -17.33012115 22.06242371 -17.34815979 20.77113342 C-17.32122162 9.95821618 -17.32122162 9.95821618 -12.86932373 5.14717102 C-8.63858802 1.32919001 -5.65192291 0.02766508 0 0 Z " fill="#EDEDEC" transform="translate(240.86932373046875,119.85282897949219)"/>
<path d="M0 0 C2.53480449 1.54155542 4.81944636 3.27955854 7.09423828 5.18115234 C10.0660564 7.55419567 13.37694203 9.30101618 16.68310547 11.16210938 C18.11996349 12.01035684 19.55476757 12.86209052 20.98779297 13.71679688 C26.73373825 17.12117949 32.52090289 20.45349894 38.30810547 23.78710938 C39.41452393 24.42463135 40.52094238 25.06215332 41.66088867 25.71899414 C43.93234005 27.02754232 46.20390675 28.33589033 48.47558594 29.64404297 C53.94230527 32.79292991 59.40635434 35.94644201 64.87060547 39.09960938 C67.03725858 40.34963287 69.20392526 41.59963284 71.37060547 42.84960938 C75.7039388 45.34960938 80.03727214 47.84960938 84.37060547 50.34960938 C85.4432666 50.96843994 86.51592773 51.58727051 87.62109375 52.22485352 C89.78617618 53.47396456 91.95121529 54.72315067 94.11621094 55.97241211 C99.55676253 59.11163247 104.99807763 62.249515 110.44091797 65.38476562 C120.89266746 71.40708266 131.33360095 77.44630275 141.74560547 83.53710938 C151.0132663 88.95745435 160.32420076 94.29901323 169.65200806 99.61480713 C194.80670046 113.95372938 194.80670046 113.95372938 202.36751938 118.65232563 C205.00930114 120.2140399 207.68535638 121.34127712 210.54376602 122.45267773 C223.19198637 127.81394991 223.19198637 127.81394991 225.97138309 134.08210778 C227.76842536 141.68892692 227.34771739 149.50307103 227.17041016 157.26293945 C227.17979191 159.88537626 227.19741216 162.50779457 227.22262573 165.13012695 C227.2684188 171.49653936 227.21342224 177.85821341 227.12353536 184.22400043 C227.0225731 191.64116255 227.02207172 199.05733603 227.02530041 206.47506066 C227.02761327 219.70922817 226.93873053 232.9412051 226.79833984 246.17456055 C226.6622581 259.00891229 226.59155059 271.84142915 226.59326172 284.67651367 C226.59340704 285.86338183 226.59340704 285.86338183 226.5935553 287.07422713 C226.59365881 287.86412222 226.59376232 288.6540173 226.59386897 289.4678486 C226.59533831 304.09561014 226.53765126 318.72260847 226.45118605 333.350099 C226.4219107 338.51812691 226.40980107 343.68603537 226.40291595 348.85413551 C226.39227887 355.80793841 226.3310052 362.75985094 226.23614883 369.71300507 C226.20824201 372.26627474 226.19558137 374.81976263 226.19916153 377.3731823 C226.20133715 380.85600013 226.14828457 384.33368723 226.08074951 387.81575012 C226.09400481 388.82965295 226.10726011 389.84355578 226.12091708 390.88818294 C225.90863594 397.58702017 225.90863594 397.58702017 222.88353682 400.53797662 C220.60315564 402.07834665 218.3310935 403.37244345 215.87060547 404.59960938 C214.96238037 405.14488281 214.05415527 405.69015625 213.1184082 406.25195312 C212.35471924 406.67605469 211.59103027 407.10015625 210.80419922 407.53710938 C209.91966064 408.03186768 209.03512207 408.52662598 208.1237793 409.03637695 C207.19460693 409.55224365 206.26543457 410.06811035 205.30810547 410.59960938 C197.221223 415.12902075 189.17893061 419.72382101 181.18310547 424.41210938 C172.44457198 429.53210308 163.67045875 434.58607704 154.87060547 439.59960938 C145.14926448 445.13929837 135.46165455 450.73336 125.80371094 456.38305664 C115.27975922 462.53727679 104.71680409 468.62330934 94.15283203 474.70849609 C88.72400605 477.83641086 83.29741266 480.96819385 77.87060547 484.09960938 C75.70394964 485.34962816 73.53728297 486.59962816 71.37060547 487.84960938 C70.29810547 488.46835937 69.22560547 489.08710937 68.12060547 489.72460938 C58.37060547 495.34960937 58.37060547 495.34960937 55.1184082 497.22583008 C52.95901152 498.47166707 50.79966878 499.71759756 48.64038086 500.96362305 C43.1129295 504.1530989 37.58445426 507.34077823 32.05419922 510.52539062 C30.93360107 511.17121094 29.81300293 511.81703125 28.65844727 512.48242188 C26.45127201 513.75368277 24.24312411 515.02325668 22.03393555 516.29101562 C17.19876062 519.07158469 12.38615134 521.87460078 7.63623047 524.79882812 C6.46169312 525.51558716 6.46169312 525.51558716 5.26342773 526.24682617 C3.84461821 527.11714872 2.43293363 527.99925264 1.03051758 528.89575195 C-3.49554339 531.6627632 -3.49554339 531.6627632 -6.53808594 531.35961914 C-9.30031049 530.54948111 -11.41502531 529.47924442 -13.88330078 528.00195312 C-14.805625 527.45603516 -15.72794922 526.91011719 -16.67822266 526.34765625 C-17.67273438 525.75017578 -18.66724609 525.15269531 -19.69189453 524.53710938 C-21.85910657 523.25327904 -24.02710756 521.97077981 -26.19580078 520.68945312 C-27.89760498 519.68180908 -27.89760498 519.68180908 -29.63378906 518.65380859 C-34.84447461 515.58155035 -40.10398509 512.59483103 -45.36209106 509.60473633 C-55.67722347 503.73816174 -65.953345 497.80807187 -76.19628906 491.81616211 C-86.72024078 485.66194196 -97.28319591 479.57590941 -107.84716797 473.49072266 C-113.27599395 470.36280789 -118.70258734 467.2310249 -124.12939453 464.09960938 C-126.29605036 462.84959059 -128.46271703 461.59959059 -130.62939453 460.34960938 C-169.62939452 437.84960938 -169.62939452 437.84960938 -172.88061523 435.97387695 C-175.04318036 434.72626198 -177.20577792 433.47870321 -179.3684082 432.23120117 C-184.84809824 429.07017488 -190.32718811 425.90811628 -195.80517578 422.74414062 C-196.91699219 422.1021875 -198.02880859 421.46023438 -199.17431641 420.79882812 C-201.23703585 419.60780184 -203.299562 418.41644068 -205.36181641 417.22460938 C-212.24893436 413.2486355 -219.15060103 409.29853105 -226.0559082 405.35424805 C-227.02672081 404.79961632 -227.99753342 404.24498459 -228.99776459 403.67354584 C-231.37492289 402.31547653 -233.75213418 400.95750005 -236.12939453 399.59960938 C-236.67938276 365.69708471 -237.10194562 331.79567441 -237.35496244 297.88967555 C-237.38497745 293.88200949 -237.41604137 289.87435219 -237.44775391 285.86669922 C-237.45404936 285.06888681 -237.46034481 284.27107439 -237.46683103 283.44908585 C-237.57111492 270.54998705 -237.76024908 257.65346936 -237.98106164 244.75589918 C-238.20593723 231.50998758 -238.33889262 218.26542219 -238.38751841 205.01768029 C-238.42037029 196.84889352 -238.52384586 188.68740035 -238.71938974 180.52086176 C-238.8468163 174.91148388 -238.88448542 169.30584277 -238.85342759 163.69512461 C-238.83811378 160.45946456 -238.87386376 157.23905306 -238.99032593 154.00509644 C-239.53148395 138.19671071 -239.53148395 138.19671071 -236.12939453 131.59960938 C-230.20140758 125.59098031 -222.6138783 122.14324121 -214.95212841 118.84395337 C-211.28362921 117.22677118 -207.93869969 115.28836738 -204.50439453 113.22460938 C-202.37988476 112.01541433 -200.25489449 110.80706305 -198.12939453 109.59960938 C-188.40645531 104.06276001 -178.72040551 98.46583646 -169.0625 92.81616211 C-158.53854828 86.66194196 -147.97559316 80.57590941 -137.41162109 74.49072266 C-131.98279511 71.36280789 -126.55620172 68.2310249 -121.12939453 65.09960938 C-118.9627387 63.84959059 -116.79607203 62.59959059 -114.62939453 61.34960938 C-113.55689453 60.73085937 -112.48439453 60.11210938 -111.37939453 59.47460938 C-75.62939453 38.84960938 -75.62939453 38.84960938 -72.37890625 36.97436523 C-70.21382382 35.72525419 -68.04878471 34.47606808 -65.88378906 33.22680664 C-60.44323747 30.08758628 -55.00192237 26.94970375 -49.55908203 23.81445312 C-48.4753833 23.18869385 -47.39168457 22.56293457 -46.27514648 21.91821289 C-44.1090028 20.67240136 -41.93829806 19.43448423 -39.76293945 18.20483398 C-34.25714428 15.07600106 -28.92184028 11.83144749 -23.68798828 8.26367188 C-6.79062362 -3.01649964 -6.79062362 -3.01649964 0 0 Z M-11.85595703 10.03710938 C-12.79165527 10.59454834 -13.72735352 11.1519873 -14.69140625 11.72631836 C-15.70219238 12.34450439 -16.71297852 12.96269043 -17.75439453 13.59960938 C-19.93616482 14.90386735 -22.11847477 16.20722292 -24.30126953 17.50976562 C-25.99413086 18.52707764 -25.99413086 18.52707764 -27.72119141 19.56494141 C-33.11345561 22.78407678 -38.55861812 25.9096518 -44.00439453 29.03710938 C-46.18943874 30.29596646 -48.37433374 31.55508255 -50.55908203 32.81445312 C-51.64415039 33.4394873 -52.72921875 34.06452148 -53.84716797 34.70849609 C-59.27599395 37.83641086 -64.70258734 40.96819385 -70.12939453 44.09960938 C-72.29605036 45.34962816 -74.46271703 46.59962816 -76.62939453 47.84960938 C-77.70189453 48.46835938 -78.77439453 49.08710937 -79.87939453 49.72460938 C-167.62939453 100.34960938 -167.62939453 100.34960938 -170.88208008 102.22607422 C-173.03989256 103.47102219 -175.19760806 104.71613827 -177.35522461 105.96142578 C-182.90656045 109.16513588 -188.45975994 112.36554568 -194.01611328 115.56054688 C-208.15219508 123.68515987 -208.15219508 123.68515987 -222.19189453 131.97460938 C-223.10297974 132.51964111 -223.10297974 132.51964111 -224.0324707 133.07568359 C-226.73319902 134.63382399 -226.73319902 134.63382399 -229.12939453 136.59960938 C-229.24097281 137.97105142 -229.28430199 139.34812097 -229.29992867 140.7240057 C-229.31240359 141.61854582 -229.32487852 142.51308594 -229.33773148 143.43473333 C-229.34641467 144.42886395 -229.35509787 145.42299457 -229.36404419 146.44725037 C-229.37689323 147.49460564 -229.38974228 148.54196092 -229.40298069 149.62105423 C-229.44470974 153.16001073 -229.47884334 156.69899705 -229.51269531 160.23803711 C-229.54022088 162.76380127 -229.56795603 165.28956316 -229.59588623 167.81532288 C-229.84140756 190.90311512 -229.98104233 213.99189974 -230.09233284 237.08068752 C-230.10750044 240.17220133 -230.12295798 243.26371353 -230.13867188 246.35522461 C-230.14256565 247.12361461 -230.14645943 247.89200462 -230.1504712 248.68367917 C-230.21530419 261.11919786 -230.34310771 273.55328748 -230.49512757 285.98801219 C-230.64990978 298.75491623 -230.74001207 311.5210772 -230.76956928 324.28889233 C-230.78976118 332.16366715 -230.85953658 340.03474457 -230.99332796 347.90842194 C-231.0905246 353.95151231 -231.09721619 359.99130095 -231.07051849 366.03525352 C-231.07359526 368.50977192 -231.10573837 370.98445393 -231.16934586 373.45815659 C-231.9734176 385.70101184 -231.9734176 385.70101184 -227.47134352 396.55253911 C-223.44760437 399.84564886 -219.04059431 401.91220941 -214.21103835 403.76064408 C-211.16624005 404.9877897 -208.49583638 406.62080483 -205.69580078 408.33007812 C-203.69492832 409.48316769 -201.69362059 410.63550227 -199.69189453 411.78710938 C-197.44318503 413.08266218 -195.19448745 414.37823569 -192.94580078 415.67382812 C-191.81674316 416.32399902 -190.68768555 416.97416992 -189.52441406 417.64404297 C-184.05769473 420.79292991 -178.59364566 423.94644201 -173.12939453 427.09960938 C-170.96274142 428.34963287 -168.79607474 429.59963284 -166.62939453 430.84960938 C-162.2960612 433.34960938 -157.96272786 435.84960938 -153.62939453 438.34960938 C-152.5567334 438.96843994 -151.48407227 439.58727051 -150.37890625 440.22485352 C-148.21382382 441.47396456 -146.04878471 442.72315067 -143.88378906 443.97241211 C-138.44323747 447.11163247 -133.00192237 450.249515 -127.55908203 453.38476562 C-117.10733254 459.40708266 -106.66639905 465.44630275 -96.25439453 471.53710938 C-87.57677212 476.61236061 -78.86333885 481.62219704 -70.12939453 486.59960938 C-62.38227142 491.01463937 -54.64399633 495.4429838 -46.9465332 499.94433594 C-44.99958917 501.08106303 -43.04926415 502.21202078 -41.09545898 503.33691406 C-36.329009 506.0901729 -31.62100285 508.89923777 -26.99902344 511.88768005 C-24.68459482 513.3766042 -22.34887085 514.82998569 -20.0100708 516.28024292 C-18.35883962 517.32311794 -16.7383372 518.41415334 -15.11914062 519.50610352 C-12.08565426 521.37292 -9.592682 522.75777571 -6.12939453 523.59960938 C-1.83948573 522.47113419 1.29960784 520.16466929 4.87060547 517.59960938 C6.61179027 516.59799569 8.36581879 515.61835886 10.13232422 514.66210938 C11.9416922 513.64264895 13.75025745 512.62176278 15.55810547 511.59960938 C16.54576904 511.04128418 17.53343262 510.48295898 18.55102539 509.90771484 C26.63223142 505.32651493 34.66317609 500.66247633 42.68041992 495.97045898 C53.28871595 489.76241337 63.93777494 483.62581217 74.58837891 477.49072266 C80.01720489 474.36280789 85.44379828 471.2310249 90.87060547 468.09960938 C93.0372613 466.84959059 95.20392797 465.59959059 97.37060547 464.34960938 C98.44310547 463.73085938 99.51560547 463.11210937 100.62060547 462.47460938 C162.37060547 426.84960938 162.37060547 426.84960938 165.62451172 424.97241211 C167.77822267 423.72984918 169.93186913 422.48717449 172.08544922 421.24438477 C177.10744809 418.34646315 182.13003354 415.44957588 187.1550293 412.55685425 C188.92106069 411.54013739 190.68687978 410.52305279 192.45263672 409.50585938 C194.65794702 408.23560064 196.86364763 406.96601919 199.06982422 405.69726562 C200.07658203 405.1171875 201.08333984 404.53710938 202.12060547 403.93945312 C203.42771484 403.18716431 203.42771484 403.18716431 204.76123047 402.41967773 C205.78732422 401.81905518 206.81341797 401.21843262 207.87060547 400.59960938 C209.08127523 400.04400985 209.08127523 400.04400985 210.31640297 399.47718608 C215.56658859 396.95046186 215.56658859 396.95046186 218.80794227 392.36306119 C219.17332935 389.58077437 219.21858501 386.94316824 219.16062927 384.13723755 C219.18720418 382.55767975 219.18720418 382.55767975 219.21431595 380.9462117 C219.26123965 377.4167496 219.23666133 373.89145212 219.2121582 370.36181641 C219.23061995 367.83203864 219.25329158 365.30228861 219.27986145 362.77258301 C219.33224824 356.61402022 219.33743533 350.45699635 219.3188101 344.2982849 C219.30441929 339.29170653 219.30845809 334.28546366 219.32557869 329.27889633 C219.32797719 328.56597585 219.33037569 327.85305538 219.33284687 327.11853125 C219.33776111 325.67016022 219.34270036 324.22178927 219.34766436 322.77341841 C219.39168962 309.1938753 219.37210245 295.61497617 219.33230836 282.03545748 C219.29775353 269.61843654 219.33824173 257.20301358 219.41494691 244.78622343 C219.49315489 232.03024539 219.52330262 219.27500871 219.50045925 206.51879776 C219.48840588 199.35960791 219.49481554 192.2016185 219.55074883 185.04260635 C219.60267345 178.3093541 219.58623214 171.57959911 219.52393913 164.84628296 C219.51154698 162.37598487 219.52130296 159.9054612 219.55485916 157.43535995 C220.28516986 145.64010955 220.28516986 145.64010955 216.61462331 134.85404921 C213.16470547 131.68188728 209.25000079 130.20020135 204.87060547 128.59960938 C202.83541921 127.45763481 200.81733122 126.28396318 198.82763672 125.06445312 C196.78056073 123.88675588 194.73234725 122.711034 192.68310547 121.53710938 C190.98017765 120.55809824 189.27725167 119.5790839 187.57443237 118.59988403 C185.82665086 117.59513639 184.07839951 116.59121023 182.33007812 115.58740234 C176.8392131 112.43238308 171.35513202 109.26562974 165.87060547 106.09960938 C163.70397406 104.84954826 161.53730733 103.59954838 159.37060547 102.34960938 C42.37060547 34.84960937 42.37060547 34.84960937 39.11523438 32.97119141 C36.96684035 31.73194471 34.81808222 30.49332902 32.66894531 29.25537109 C27.5828663 26.32463306 22.50080318 23.38749521 17.43145752 20.42791748 C15.03240976 19.02782769 12.63128137 17.63132842 10.22998047 16.23510742 C8.53262321 15.246177 6.83829645 14.25205099 5.14404297 13.2578125 C4.11794922 12.66162109 3.09185547 12.06542969 2.03466797 11.45117188 C0.68042725 10.65960693 0.68042725 10.65960693 -0.70117188 9.85205078 C-5.43804712 7.40884044 -7.2164932 7.22586629 -11.85595703 10.03710938 Z " fill="#E95A08" transform="translate(302.12939453125,34.400390625)"/>
<path d="M0 0 C1.16350479 -0.00852997 2.32700958 -0.01705994 3.52577209 -0.02584839 C4.79857529 -0.02494202 6.07137848 -0.02403564 7.38275146 -0.02310181 C8.7398058 -0.02908776 10.09685674 -0.03589346 11.4539032 -0.04345703 C15.13798851 -0.06112095 18.8219809 -0.06581266 22.50610447 -0.0670886 C24.80979184 -0.06851093 27.11345564 -0.07278215 29.41713715 -0.07808304 C37.4598897 -0.096587 45.50257598 -0.10475349 53.54534912 -0.10317993 C61.03212472 -0.10197952 68.51861155 -0.12306098 76.00531411 -0.15466726 C82.44029982 -0.18086144 88.87519143 -0.19154586 95.31023002 -0.19026911 C99.15026483 -0.18976025 102.9900432 -0.19540063 106.83002472 -0.21662521 C110.44495991 -0.23605999 114.05939551 -0.23609688 117.67434883 -0.22159195 C119.62418679 -0.21852011 121.57402506 -0.23514504 123.52378845 -0.25247192 C136.52174826 -0.15965522 136.52174826 -0.15965522 141.2958374 4.26742554 C145.2958374 11.26742554 145.2958374 11.26742554 145.2958374 34.26742554 C92.1658374 34.26742554 39.0358374 34.26742554 -15.7041626 34.26742554 C-15.7041626 9.26742554 -15.7041626 9.26742554 -9.7041626 2.26742554 C-5.73709447 0.28389147 -4.26113424 0.01412722 0 0 Z " fill="#EDECEC" transform="translate(231.70416259765625,216.73257446289063)"/>
<path d="M0 0 C53.46 0 106.92 0 162 0 C162 27 162 27 158 34 C153.47088925 37.98658706 149.63172591 38.56680968 143.79150391 38.45410156 C142.99083496 38.45468567 142.19016602 38.45526978 141.36523438 38.45587158 C138.73522641 38.45309874 136.10637093 38.42204584 133.4765625 38.390625 C131.64668395 38.38315974 129.81679738 38.37746815 127.98690796 38.37347412 C123.18302127 38.35824023 118.37962239 38.31897789 113.57592773 38.2746582 C108.66917519 38.23365696 103.76234342 38.21545275 98.85546875 38.1953125 C89.23676547 38.15248137 79.61842338 38.08425733 70 38 C70.77988281 37.3915625 71.55976563 36.783125 72.36328125 36.15625 C76.60047329 32.69116851 80.43697081 28.48292476 81.3359375 22.921875 C81.43967967 17.15381025 80.47575253 12.69811198 77 8 C71.68023496 3.76590129 67.29914348 2.57262074 60.63671875 2.66015625 C55.56975846 3.31323113 51.9510213 5.77892208 48.6171875 9.57421875 C45.59056299 14.11415551 45.11142695 18.67772228 46 24 C47.96879686 30.48887484 51.3921381 33.44116456 57 37 C57 37.33 57 37.66 57 38 C48.42 38 39.84 38 31 38 C32.65 36.68 34.3 35.36 36 34 C41.18637775 28.64336237 42.48409746 24.21013546 42.40625 16.86328125 C41.7324574 12.1143392 39.50467487 9.17052627 36 6 C30.62421027 2.69182171 25.17450878 2.08147803 19 3 C14.01330993 5.49334503 10.50324526 8.99350949 8 14 C7.27881931 21.02264474 7.54294734 27.27336265 12 33 C13.92590248 34.61587915 15.79988144 35.74993263 18 37 C18 37.33 18 37.66 18 38 C13.14848605 37.88140744 9.80096723 37.5043127 5.625 34.875 C-3.72348242 24.63618593 0 14.39113846 0 0 Z " fill="#EDEAE9" transform="translate(215,352)"/>
<path d="M0 0 C14.46239336 3.21386519 25.27694915 8.87343269 33.578125 21.30078125 C34.04734375 22.19152344 34.5165625 23.08226562 35 24 C35.33004028 24.57673965 35.66008057 25.15347931 36.00012207 25.74769592 C40.3889324 34.69790672 39.50115108 44.29354126 39.390625 54.0078125 C39.3831536 55.94407565 39.37746492 57.88034642 39.37347412 59.81661987 C39.35828851 64.88347691 39.31906849 69.94986662 39.2746582 75.01654053 C39.23355202 80.19846273 39.21543048 85.38046133 39.1953125 90.5625 C39.15256658 100.70857044 39.08227544 110.85417303 39 121 C33.39 121 27.78 121 22 121 C21.98541748 118.81068848 21.97083496 116.62137695 21.95581055 114.36572266 C21.90528808 107.10131463 21.83866271 99.83711698 21.76428509 92.57291603 C21.71971385 88.17216477 21.68042921 83.77150326 21.65356445 79.37060547 C21.62739844 75.11696238 21.58690395 70.86366717 21.53681374 66.61024094 C21.52023437 64.99413787 21.50866484 63.37797476 21.50238609 61.76179886 C21.65815558 45.85933554 21.65815558 45.85933554 14.4375 32.1875 C13.83808594 31.50042969 13.23867188 30.81335938 12.62109375 30.10546875 C9.04844253 27.08363716 9.04844253 27.08363716 0 23 C0 15.41 0 7.82 0 0 Z " fill="#EDEDEC" transform="translate(398,230)"/>
<path d="M0 0 C0 7.59 0 15.18 0 23 C-1.69125 23.845625 -3.3825 24.69125 -5.125 25.5625 C-12.44029872 29.57745187 -16.65612864 33.93602235 -19.45703125 41.8125 C-20.80358438 47.23746226 -21.13481802 52.65062367 -21.20532227 58.22045898 C-21.22017166 59.24611717 -21.22017166 59.24611717 -21.23532104 60.29249573 C-21.26662116 62.52699456 -21.29156724 64.76151457 -21.31640625 66.99609375 C-21.33700307 68.55551164 -21.35800021 70.1149243 -21.37937927 71.67433167 C-21.43431848 75.75950857 -21.48385073 79.84473348 -21.53222656 83.92999268 C-21.58264842 88.10636621 -21.63822603 92.28267085 -21.69335938 96.45898438 C-21.80059612 104.639266 -21.90163919 112.81960683 -22 121 C-27.61 121 -33.22 121 -39 121 C-39.06794737 110.09009086 -39.1229149 99.18032372 -39.15543652 88.27025032 C-39.17105021 83.203524 -39.19220958 78.13695075 -39.22631836 73.0703125 C-39.25906555 68.17494083 -39.27688528 63.27971582 -39.28463173 58.38424301 C-39.29014777 56.52245655 -39.30091888 54.66067754 -39.31719017 52.79895401 C-39.45346583 36.55110784 -37.76388419 25.0707161 -26.25 12.8125 C-19.33824481 6.190933 -9.80858574 0 0 0 Z " fill="#EDEDEC" transform="translate(194,230)"/>
<path d="M0 0 C28.05 0 56.1 0 85 0 C85 7.26 85 14.52 85 22 C83.68 21.34 82.36 20.68 81 20 C75.69473417 19.36455033 70.72404041 19.22249158 65.8125 21.4375 C63.04323339 23.88290987 63.04323339 23.88290987 60.890625 26.3046875 C54.77825167 32.88882119 54.77825167 32.88882119 50.5 33.5 C46.50915529 31.78963798 43.71218332 29.53013299 40.37890625 26.7890625 C34.1072309 22.07243309 27.39653852 20.26693281 19.59765625 20.62890625 C11.67424567 21.76082205 7.52244345 26.15867917 2.56640625 32.171875 C2.04949219 32.77515625 1.53257812 33.3784375 1 34 C0.67 34 0.34 34 0 34 C0 22.78 0 11.56 0 0 Z " fill="#EDEAE8" transform="translate(292,279)"/>
<path d="M0 0 C1.00370636 -0.0071553 2.00741272 -0.01431061 3.04153442 -0.02168274 C4.1418399 -0.02437164 5.24214539 -0.02706055 6.37579346 -0.02983093 C7.53541595 -0.03640213 8.69503845 -0.04297333 9.88980103 -0.04974365 C13.7357184 -0.06948959 17.58159671 -0.08114194 21.42755127 -0.09111023 C22.73997047 -0.09518576 24.05238968 -0.09926128 25.40457916 -0.10346031 C31.63401047 -0.12250739 37.86342996 -0.13673882 44.09288478 -0.14507228 C51.27528819 -0.15484005 58.45738304 -0.18114917 65.63967776 -0.22157317 C71.19649218 -0.25177133 76.75321833 -0.26654468 82.31011319 -0.26985329 C85.62648417 -0.27219982 88.94245064 -0.28309128 92.25875092 -0.30631447 C95.96207797 -0.33063671 99.66459864 -0.32975294 103.36798096 -0.32279968 C104.46018951 -0.33560974 105.55239807 -0.3484198 106.67770386 -0.36161804 C113.06220729 -0.31793977 116.93934163 0.34323582 122.13067627 4.14717102 C126.01464267 8.43997599 127.2514437 10.84879739 127.30767822 16.57148743 C127.32693108 18.27433395 127.32693108 18.27433395 127.34657288 20.01158142 C127.35395981 21.24484161 127.36134674 22.47810181 127.36895752 23.74873352 C127.37702927 25.01430084 127.38510101 26.27986816 127.39341736 27.58378601 C127.40727153 30.26885142 127.41828289 32.95379352 127.42584229 35.63887024 C127.43686528 39.06186358 127.47121375 42.48419936 127.51101398 45.90696144 C127.54361985 49.18748636 127.5479724 52.46807128 127.55645752 55.74873352 C127.57396561 56.96984833 127.59147369 58.19096313 127.60951233 59.44908142 C127.57684052 72.33819541 127.57684052 72.33819541 123.13067627 77.14717102 C117.02125974 81.73066045 111.70234164 81.71942913 104.23199463 81.66474915 C102.46001457 81.67526306 102.46001457 81.67526306 100.65223694 81.68598938 C97.42898663 81.7005289 94.2063986 81.69719114 90.98315883 81.68447304 C87.60137399 81.67430399 84.21963153 81.68374928 80.83784485 81.6900177 C75.16120529 81.69728183 69.48477434 81.68773804 63.8081665 81.6686554 C57.2545244 81.64687827 50.70137994 81.65394864 44.14774984 81.67596102 C38.50930184 81.69413794 32.87100327 81.69666255 27.23253542 81.68620634 C23.86994146 81.67998524 20.50758112 81.67909747 17.14500237 81.69235229 C13.39631368 81.70251115 9.64858088 81.68702434 5.89996338 81.66474915 C4.79174225 81.67284607 3.68352112 81.68094299 2.54171753 81.68928528 C-3.58342986 81.62186053 -7.22006375 81.26136544 -11.86932373 77.14717102 C-15.74868968 72.74356643 -16.9904691 70.41857574 -17.04632568 64.59931946 C-17.06557854 62.85675873 -17.06557854 62.85675873 -17.08522034 61.07899475 C-17.09260727 59.81758667 -17.0999942 58.55617859 -17.10760498 57.25654602 C-17.11567673 55.96403931 -17.12374847 54.67153259 -17.13206482 53.33985901 C-17.14709371 50.59936148 -17.15692996 47.85888988 -17.16448975 45.11836243 C-17.17553597 41.61671005 -17.20991352 38.11569637 -17.24966145 34.61426926 C-17.28218095 31.26588753 -17.28661153 27.91757344 -17.29510498 24.56904602 C-17.31261307 23.31573486 -17.33012115 22.06242371 -17.34815979 20.77113342 C-17.32122162 9.95821618 -17.32122162 9.95821618 -12.86932373 5.14717102 C-8.63858802 1.32919001 -5.65192291 0.02766508 0 0 Z M-10.86932373 8.14717102 C-13.13931134 11.55215243 -13.13411073 12.80641675 -13.17572021 16.80854797 C-13.19170761 17.9701796 -13.20769501 19.13181122 -13.22416687 20.3286438 C-13.22952957 21.58489059 -13.23489227 22.84113739 -13.24041748 24.13545227 C-13.24944595 25.42654404 -13.25847443 26.7176358 -13.26777649 28.04785156 C-13.28426379 30.78239947 -13.29196578 33.51682501 -13.29486084 36.25141907 C-13.30023745 39.74540346 -13.33788556 43.23822766 -13.383605 46.73188496 C-13.42061733 50.07473475 -13.42189416 53.41740461 -13.42791748 56.76045227 C-13.4474498 58.01062637 -13.46698212 59.26080048 -13.48710632 60.54885864 C-13.60355298 67.72568095 -13.60355298 67.72568095 -10.45941162 73.92134094 C-7.01461119 76.88168079 -5.50028862 77.27270034 -1.0688324 77.28761292 C-0.05519623 77.29332306 0.95843994 77.2990332 2.00279236 77.30491638 C3.67738274 77.30659317 3.67738274 77.30659317 5.38580322 77.30830383 C6.55824585 77.31326874 7.73068848 77.31823364 8.93865967 77.323349 C12.15985448 77.33547017 15.38101298 77.34291923 18.6022265 77.34735966 C20.61474085 77.35028988 22.62724949 77.35439462 24.63976097 77.35886383 C30.93647114 77.37254119 37.23316827 77.38220628 43.52989227 77.38606572 C50.79829924 77.39054515 58.06651802 77.40808649 65.33486778 77.43706632 C70.95277807 77.45868783 76.57063544 77.46877027 82.18858689 77.47010684 C85.54394809 77.47115468 88.89913246 77.47705754 92.25444984 77.49492645 C95.99890082 77.51194593 99.74289196 77.51011638 103.48736572 77.50361633 C105.15284706 77.51743851 105.15284706 77.51743851 106.85197449 77.53153992 C114.06126041 77.63782837 114.06126041 77.63782837 120.13067627 74.14717102 C122.91663701 70.52417808 123.51039561 67.85718925 123.534729 63.33467102 C123.54741318 62.18998352 123.56009735 61.04529602 123.57316589 59.86592102 C123.57023026 58.63873352 123.56729462 57.41154602 123.56427002 56.14717102 C123.56951187 54.87873352 123.57475372 53.61029602 123.58015442 52.30342102 C123.58657375 49.62341697 123.58668079 46.94426576 123.57672119 44.26435852 C123.56522439 40.83770077 123.58545986 37.41207248 123.61463833 33.98554993 C123.63743863 30.70608523 123.6305325 27.42669639 123.62677002 24.14717102 C123.64362099 22.30638977 123.64362099 22.30638977 123.66081238 20.42842102 C123.65143143 19.28373352 123.64205048 18.13904602 123.63238525 16.95967102 C123.63221909 15.95549133 123.63205292 14.95131165 123.63188171 13.91670227 C122.98115234 10.3209406 121.71142223 8.70594136 119.13067627 6.14717102 C115.66502494 4.47088931 112.88407263 3.89459115 109.05207825 3.87974548 C107.55284821 3.86695053 107.55284821 3.86695053 106.02333069 3.85389709 C104.93799545 3.85480347 103.85266022 3.85570984 102.73443604 3.85664368 C101.58266876 3.84992645 100.43090149 3.84320923 99.24423218 3.83628845 C95.43680509 3.81729003 91.62955406 3.81338348 87.82208252 3.81123352 C85.17559232 3.80480762 82.52910283 3.79807941 79.88261414 3.7910614 C74.33532566 3.77828214 68.7880849 3.77529542 63.24078369 3.77656555 C56.83603829 3.77776733 50.43162967 3.75665479 44.02696949 3.72507823 C37.85624991 3.69574325 31.68569161 3.68859023 25.51490593 3.689785 C22.89343832 3.68742373 20.27196826 3.67857074 17.65054512 3.66312027 C13.98551534 3.64353911 10.32135462 3.64926806 6.65631104 3.66133118 C5.57300003 3.65009216 4.48968903 3.63885315 3.37355042 3.62727356 C-2.68196387 3.67795623 -6.29366441 4.04248891 -10.86932373 8.14717102 Z " fill="#EA6113" transform="translate(240.86932373046875,119.85282897949219)"/>
<path d="M0 0 C5.0044423 3.62325407 8.47848527 7.98233082 10.44140625 13.87109375 C11.17263271 20.61995434 10.69072862 26.38923312 6.44140625 31.87109375 C0.03900637 37.67880431 -4.50887882 39.34817949 -13.15234375 39.28125 C-19.06796858 38.56893279 -23.07920789 35.68889161 -26.9609375 31.27734375 C-30.90933115 25.76926435 -31.42891634 19.4479633 -30.55859375 12.87109375 C-28.28308618 7.21174949 -24.44341018 3.37541858 -19.55859375 -0.12890625 C-13.54447647 -2.13361201 -5.870211 -2.59006257 0 0 Z " fill="#EA6215" transform="translate(276.55859375,148.12890625)"/>
<path d="M0 0 C5.33520769 5.29102377 8.11955621 9.01436149 8.375 16.6875 C8.32368439 22.75007329 6.99501125 26.46867217 3 31 C-1.60106387 35.37101067 -5.57767466 37.09337975 -11.875 37.3125 C-18.60024396 37.12319684 -23.08514039 35.25240331 -27.8125 30.4375 C-31.4335214 25.96639683 -32.96524532 21.76058881 -33 16 C-32.08899231 10.20497885 -30.33597396 5.09508651 -26 1 C-17.7219073 -4.6863534 -8.64048779 -5.82293743 0 0 Z " fill="#EA6012" transform="translate(338,150)"/>
<path d="M0 0 C4.46854865 0.95231365 7.56729074 2.56729074 10.8125 5.8125 C10.8125 10.4325 10.8125 15.0525 10.8125 19.8125 C-16.2475 19.8125 -43.3075 19.8125 -71.1875 19.8125 C-69.38687214 14.41061641 -68.46314196 12.51635143 -64.8125 8.5625 C-64.04164063 7.71171875 -63.27078125 6.8609375 -62.4765625 5.984375 C-59.08685852 2.76820536 -56.54452808 1.52488203 -51.875 1.5 C-51.15699219 1.48324219 -50.43898438 1.46648437 -49.69921875 1.44921875 C-43.36992927 2.36465253 -38.72315231 5.71701672 -33.75 9.5 C-28.72339394 13.22202056 -28.72339394 13.22202056 -22.75 14.625 C-17.59202312 13.44861931 -14.67816595 11.43133536 -11.09765625 7.54296875 C-4.32379766 0.19014789 -4.32379766 0.19014789 0 0 Z " fill="#EDECEB" transform="translate(366.1875,304.1875)"/>
<path d="M0 0 C4.98580361 2.56738218 8.23459792 6.70379376 10 12 C10.95358822 18.40096091 9.87614948 23.76067869 6 29 C1.31823483 32.72630289 -2.74769842 34.48111404 -8.8046875 34.4140625 C-13.94947052 33.44369417 -17.58398333 29.54876824 -21 25.8125 C-22.98640561 20.22573421 -22.91917851 13.73770434 -20.9375 8.125 C-15.94430933 0.07146665 -9.26556136 -1.7726515 0 0 Z " fill="#EA5B0A" transform="translate(263,285)"/>
<path d="M0 0 C21.45 0 42.9 0 65 0 C65 0.66 65 1.32 65 2 C64.41992188 2.09796875 63.83984375 2.1959375 63.2421875 2.296875 C56.39180268 3.60816978 51.92952237 5.41037787 47.625 11.1875 C45.12395043 16.10553024 45.07142743 20.93955667 46.66015625 26.17578125 C48.98187878 31.51272785 52.14890272 33.92141903 57 37 C57 37.33 57 37.66 57 38 C48.42 38 39.84 38 31 38 C32.65 36.68 34.3 35.36 36 34 C41.18637775 28.64336237 42.48409746 24.21013546 42.40625 16.86328125 C41.7324574 12.1143392 39.50467487 9.17052627 36 6 C30.62421027 2.69182171 25.17450878 2.08147803 19 3 C14.01330993 5.49334503 10.50324526 8.99350949 8 14 C7.27881931 21.02264474 7.54294734 27.27336265 12 33 C13.92590248 34.61587915 15.79988144 35.74993263 18 37 C18 37.33 18 37.66 18 38 C13.14848605 37.88140744 9.80096723 37.5043127 5.625 34.875 C-3.72348242 24.63618593 0 14.39113846 0 0 Z " fill="#EDE7E3" transform="translate(215,352)"/>
<path d="M0 0 C0 13.2 0 26.4 0 40 C-8.15789474 40 -8.15789474 40 -13 36 C-17.7751784 31.1852483 -20.26961438 26.51155667 -20.4375 19.6875 C-20.31404936 13.95476094 -18.85264652 10.23695042 -15 6 C-10.18054528 1.77111303 -6.49951993 0 0 0 Z " fill="#EA5D0D" transform="translate(219,148)"/>
<path d="M0 0 C4.31883164 2.04533347 7.23209266 4.50517897 9 9 C9.57865799 13.2009067 9.46725091 16.8933531 7.8125 20.8125 C4.49120422 24.82096043 1.81917186 27.11663744 -3.375 28 C-8.43911922 28.35448835 -10.98481302 27.0515421 -15 24 C-18.63130037 20.13442219 -18.55878876 15.74356302 -18.421875 10.6640625 C-17.7499162 6.42076708 -16.1940429 4.83108348 -13 2 C-8.74673305 -0.51527902 -4.83615322 -0.80602554 0 0 Z " fill="#EA5B0A" transform="translate(271,153)"/>
<path d="M0 0 C11.1825 1.2425 11.1825 1.2425 16 7 C19.48684099 12.73641581 19.82823852 18.45879806 19 25 C17.4643587 30.4021667 14.65800219 33.81408256 10.171875 37.08984375 C8 38 8 38 0 39 C0 26.13 0 13.26 0 0 Z " fill="#EA5A08" transform="translate(374,149)"/>
<path d="M0 0 C3.28141636 2.6847952 5.46640708 4.55866204 6.18359375 8.8359375 C6.19187353 14.74770369 6.08503141 18.80381394 1.75 23.25 C-2.62905035 25.68280575 -6.24918851 26.99480171 -11.25 26.25 C-16.32057633 23.46615417 -19.4157459 20.75276231 -21.25 15.25 C-21.82273759 11.02606029 -22.12062924 8.63726638 -19.828125 4.984375 C-14.39992596 -1.46451104 -8.15065064 -4.38881188 0 0 Z " fill="#EA5B09" transform="translate(333.25,154.75)"/>
<path d="M0 0 C3.86305672 1.28768557 5.61548475 2.58512828 8.375 5.5625 C10.55453405 10.1730528 10.80748663 13.98379515 10 19 C7.8077423 23.46571013 5.49598779 25.87032157 1 28 C0.34 28 -0.32 28 -1 28 C-1.33 22.72 -1.66 17.44 -2 12 C-3.65 11.67 -5.3 11.34 -7 11 C-7 16.61 -7 22.22 -7 28 C-12.40348941 26.91930212 -13.54471786 26.0311625 -17 22 C-18.54537437 17.36387689 -18.62875654 12.8365888 -18 8 C-14.0523875 0.25719247 -7.90662635 -0.77709432 0 0 Z " fill="#EDE6E2" transform="translate(244,358)"/>
<path d="M0 0 C0.66 0.33 1.32 0.66 2 1 C0.25473546 4.99919915 -2.26523228 7.31331019 -5.44140625 10.21875 C-7.1416707 12.16190937 -7.59651671 13.47961125 -8 16 C-5.77354033 16.9479112 -5.77354033 16.9479112 -3 17 C-0.19890642 14.92722736 -0.19890642 14.92722736 2.3125 12.0625 C3.19550781 11.12535156 4.07851563 10.18820312 4.98828125 9.22265625 C5.65214844 8.48917969 6.31601562 7.75570313 7 7 C9.77753147 9.38705622 9.98098593 9.83702223 10.4375 13.75 C10.24657545 18.46236503 8.75965504 21.19615116 6 25 C0.64467815 28.94505637 -4.57982998 28.79250365 -11 28 C-15.40709992 25.66153882 -17.30133269 22.6489842 -19 18 C-19.72460316 13.58168806 -19.39268039 10.75627334 -17.3125 6.75 C-11.91659347 0.33324629 -8.26534633 -0.89236483 0 0 Z " fill="#EDEAE8" transform="translate(283,358)"/>
<path d="M0 0 C5.71077644 -0.12405604 11.42076014 -0.21455415 17.13256836 -0.2746582 C19.07346265 -0.299726 21.01426324 -0.33378955 22.95483398 -0.37719727 C25.75267711 -0.43819154 28.54926711 -0.46628687 31.34765625 -0.48828125 C32.2083522 -0.51408768 33.06904816 -0.5398941 33.95582581 -0.56648254 C39.183491 -0.56888923 42.40415172 0.30122725 46.61277771 3.43513489 C48 5 48 5 50 10 C34.82 10 19.64 10 4 10 C1 3 1 3 0 0 Z " fill="#EDECEC" transform="translate(342,448)"/>
<path d="M0 0 C0.90013321 0.00707474 1.80026642 0.01414948 2.72767639 0.0214386 C5.58104271 0.04925644 8.43239085 0.11196908 11.28515625 0.17578125 C13.22848713 0.20088052 15.17184901 0.22369083 17.11523438 0.24414062 C21.86014351 0.29904151 26.60355864 0.38522452 31.34765625 0.48828125 C29.69765625 3.78828125 28.04765625 7.08828125 26.34765625 10.48828125 C11.49765625 10.48828125 -3.35234375 10.48828125 -18.65234375 10.48828125 C-14.97467045 1.29409801 -9.40914599 -0.28211639 0 0 Z " fill="#EDECEC" transform="translate(218.65234375,447.51171875)"/>
<path d="M0 0 C1.22244667 0.00333092 1.22244667 0.00333092 2.46958923 0.00672913 C3.39046829 0.00680466 4.31134735 0.00688019 5.26013184 0.00695801 C6.2611644 0.01211929 7.26219696 0.01728058 8.29356384 0.02259827 C9.31316696 0.02401321 10.33277008 0.02542816 11.38327026 0.02688599 C14.65417867 0.03250355 17.92501972 0.04505902 21.19590759 0.05775452 C23.40749515 0.06276725 25.61908377 0.06733055 27.83067322 0.07142639 C33.26494116 0.08247868 38.69916957 0.09923389 44.13340759 0.12025452 C44.75840759 2.49525452 44.75840759 2.49525452 45.13340759 5.12025452 C43.13340759 7.12025452 43.13340759 7.12025452 41.19125366 7.36749268 C40.39929092 7.36606766 39.60732819 7.36464264 38.79136658 7.36317444 C37.44503395 7.36778938 37.44503395 7.36778938 36.07150269 7.37249756 C35.10064224 7.36531204 34.1297818 7.35812653 33.12950134 7.35072327 C32.13588089 7.35026505 31.14226044 7.34980682 30.11853027 7.34933472 C28.01613675 7.34631061 25.9137455 7.33841961 23.81138611 7.32606506 C20.5807559 7.30781017 17.35041211 7.30555532 14.11973572 7.30580139 C12.08132176 7.30088632 10.04290976 7.29505805 8.00450134 7.28822327 C7.03161667 7.28711044 6.05873199 7.28599762 5.05636597 7.28485107 C4.16196304 7.27847122 3.26756012 7.27209137 2.34605408 7.26551819 C1.55488693 7.26170639 0.76371979 7.25789459 -0.05142212 7.25396729 C-1.86659241 7.12025452 -1.86659241 7.12025452 -2.86659241 6.12025452 C-2.99159241 3.62025452 -2.99159241 3.62025452 -2.86659241 1.12025452 C-1.86659241 0.12025452 -1.86659241 0.12025452 0 0 Z " fill="#EA5F0F" transform="translate(319.86659240722656,368.87974548339844)"/>
<path d="M0 0 C1.34160439 -0.00956978 1.34160439 -0.00956978 2.71031189 -0.01933289 C3.68319656 -0.02044571 4.65608124 -0.02155853 5.65844727 -0.02270508 C6.65111099 -0.02603348 7.64377472 -0.02936188 8.66651917 -0.03279114 C10.77067602 -0.03786473 12.87484094 -0.04019933 14.97900391 -0.04003906 C18.20757234 -0.04222463 21.43579878 -0.06037332 24.66430664 -0.0793457 C26.70401901 -0.08227965 28.74373301 -0.08426444 30.78344727 -0.08520508 C32.23973793 -0.09598335 32.23973793 -0.09598335 33.72544861 -0.10697937 C34.62300369 -0.10390274 35.52055878 -0.10082611 36.4453125 -0.09765625 C37.23727524 -0.09908127 38.02923798 -0.10050629 38.84519958 -0.10197449 C40.78735352 0.14526367 40.78735352 0.14526367 42.78735352 2.14526367 C42.41235352 4.77026367 42.41235352 4.77026367 41.78735352 7.14526367 C35.25456565 7.17053369 28.7217903 7.18809659 22.18896484 7.20019531 C19.9646762 7.20523684 17.74039089 7.2120699 15.51611328 7.22070312 C12.32657043 7.23277666 9.13707123 7.23849363 5.94750977 7.24291992 C4.44596092 7.25066185 4.44596092 7.25066185 2.91407776 7.25856018 C1.9931987 7.25863571 1.07231964 7.25871124 0.12353516 7.25878906 C-1.09891151 7.26211998 -1.09891151 7.26211998 -2.34605408 7.26551819 C-4.21264648 7.14526367 -4.21264648 7.14526367 -5.21264648 6.14526367 C-5.33764648 3.64526367 -5.33764648 3.64526367 -5.21264648 1.14526367 C-3.65695472 -0.41042809 -2.16339731 0.01042312 0 0 Z " fill="#EA6011" transform="translate(322.212646484375,357.854736328125)"/>
<path d="M0 0 C4.66654996 3.33997024 8.12619555 7.19198331 9.625 12.8125 C10.6782908 19.83443869 9.42262139 24.78915767 5.4453125 30.671875 C1.76684598 34.99762533 -1.72441428 36.41241159 -7.2734375 37.25 C-12.50394723 37.5662021 -16.4781588 37.31482067 -20.875 34.3125 C-25.29222881 30.37380431 -27.90854448 26.22781223 -28.71484375 20.32421875 C-28.9487885 14.15743518 -27.98905217 9.06504193 -24.015625 4.12109375 C-17.59506511 -2.74625768 -8.42259678 -5.00632856 0 0 Z M-22.375 5.8125 C-25.88612203 11.47560005 -26.24905328 17.24716801 -25.375 23.8125 C-23.05348829 28.82696528 -19.3580311 32.42754622 -14.375 34.8125 C-8.17457431 35.6982751 -3.47665507 34.51148272 1.625 30.8125 C5.684128 25.71256995 6.99569013 21.54529135 6.90234375 15.15625 C6.28804708 9.96501054 3.42411504 6.75146018 0.125 2.875 C-3.67452338 -0.03506752 -7.8379991 0.11981199 -12.4609375 0.33203125 C-16.79649722 1.04687555 -19.49617841 2.50438045 -22.375 5.8125 Z " fill="#EDE0D9" transform="translate(266.375,284.1875)"/>
<path d="M0 0 C4.4842661 2.61512341 7.72396884 5.24487 9.83984375 10.09375 C10.57710622 15.67697722 10.59029141 20.41274723 8.27734375 25.59375 C3.55185158 30.44040863 -0.02119608 32.32059266 -6.72265625 32.59375 C-11.61272174 32.39948712 -14.44781049 31.44391569 -18.16015625 28.09375 C-22.24072894 23.57203431 -23.49095404 20.29910352 -23.3671875 14.14453125 C-22.76713597 8.20062455 -19.21279491 4.91404677 -14.87890625 1.29296875 C-10.47455216 -1.78006922 -4.86609235 -2.04147093 0 0 Z M-17.47265625 7.21875 C-19.61326348 9.87244092 -20.59125201 11.73316942 -20.72265625 15.15625 C-19.94940856 20.56898384 -18.6784837 23.72355206 -14.59765625 27.40625 C-10.48005138 30.25689953 -8.35309187 30.21309216 -3.484375 29.6015625 C-0.04870817 28.8509126 2.18698551 27.35838508 4.83984375 25.09375 C7.7559434 20.4581571 7.59784918 15.38447477 6.83984375 10.09375 C5.22681489 6.83556023 2.89095503 4.86456494 -0.03515625 2.71875 C-6.98903145 0.67349259 -12.54270253 2.16209187 -17.47265625 7.21875 Z " fill="#EDDBD1" transform="translate(332.16015625,150.90625)"/>
<path d="M0 0 C4.46624284 2.81567483 7.82308559 5.90969565 9.875 10.8125 C10.90097766 17.26661526 9.66840614 21.583751 5.875 26.8125 C0.92139133 31.4036495 -3.05532039 32.17020733 -9.62109375 32.09375 C-14.57546555 31.5372527 -17.26425306 28.78956409 -20.4375 25.1875 C-23.75525755 20.51806345 -23.83175765 16.43368875 -23.125 10.8125 C-21.37214325 5.99623939 -18.72748938 2.80386568 -14.25 0.3125 C-9.22152375 -1.81420518 -5.14329901 -1.95445362 0 0 Z M-18.765625 7.61328125 C-21.27106712 11.66662583 -20.6111705 16.21099897 -20.125 20.8125 C-18.62006491 24.9732029 -16.10266499 27.10511549 -12.1484375 29.140625 C-8.30505823 30.41680499 -4.92945214 30.09851199 -1.125 28.8125 C2.73571399 26.39235093 5.41873633 24.18129101 6.875 19.8125 C7.42008569 15.12118877 7.32334676 11.70919352 5.1875 7.4375 C2.28042645 4.13757867 0.21701838 2.16380276 -4.234375 1.49609375 C-10.56852485 1.16663294 -14.41603587 2.83908937 -18.765625 7.61328125 Z " fill="#EDE0D8" transform="translate(273.125,151.1875)"/>
<path d="M0 0 C0.33885038 2.52019972 0.67120335 5.04098516 1 7.5625 C1.09539062 8.26697266 1.19078125 8.97144531 1.2890625 9.69726562 C2.83945803 21.71283101 2.83945803 21.71283101 0.125 25.875 C-2.49332875 28.49332875 -3.29592475 28.9559953 -7 29.1875 C-10 29 -10 29 -12 27 C-11.175 26.505 -10.35 26.01 -9.5 25.5 C-6.65739921 23.16901639 -6.65739921 23.16901639 -6.5625 19.5 C-6.90926427 13.95177166 -7.98125769 8.4575481 -9 3 C-2.25 0 -2.25 0 0 0 Z " fill="#EDE5E1" transform="translate(442,378)"/>
<path d="M0 0 C2.64 0.99 5.28 1.98 8 3 C8.15602933 6.8227187 8.05501008 9.81879034 6.9375 13.5 C5.86166287 17.51645861 5.94103389 19.99105686 7 24 C8.91621575 26.420113 8.91621575 26.420113 11 28 C7.97543005 28.65273839 5.0999491 29.09603973 2 29 C-0.5625 27.1875 -0.5625 27.1875 -2 24 C-2.42522232 20.62948779 -2.23606724 17.38211724 -2 14 C-1.93296875 12.84371094 -1.8659375 11.68742187 -1.796875 10.49609375 C-1.18353408 1.18353408 -1.18353408 1.18353408 0 0 Z " fill="#EDE6E2" transform="translate(151,378)"/>
<path d="M0 0 C1.65 0 3.3 0 5 0 C5 14.19 5 28.38 5 43 C3.35 43 1.7 43 0 43 C0 28.81 0 14.62 0 0 Z " fill="#EDE9E7" transform="translate(335,401)"/>
<path d="M0 0 C1.65 0 3.3 0 5 0 C5 14.19 5 28.38 5 43 C3.35 43 1.7 43 0 43 C0 28.81 0 14.62 0 0 Z " fill="#EDE9E7" transform="translate(252,401)"/>
<path d="M0 0 C1.32 0 2.64 0 4 0 C4 14.19 4 28.38 4 43 C2.68 43 1.36 43 0 43 C0 28.81 0 14.62 0 0 Z " fill="#EDEDEC" transform="translate(365,401)"/>
<path d="M0 0 C1.32 0 2.64 0 4 0 C4 14.19 4 28.38 4 43 C2.68 43 1.36 43 0 43 C0 28.81 0 14.62 0 0 Z " fill="#EDEDEC" transform="translate(223,401)"/>
<path d="M0 0 C8.50621023 -1.05907361 8.50621023 -1.05907361 12 1.41796875 C15.0605638 4.86846015 16 6.21917055 16 11 C15.484375 10.690625 14.96875 10.38125 14.4375 10.0625 C11.2820225 8.68703545 8.42380077 8.25361487 5 8 C2.6870518 10.3129482 2.50419025 11.47904875 1.875 14.625 C1.70742187 15.44226563 1.53984375 16.25953125 1.3671875 17.1015625 C1.24601563 17.72804688 1.12484375 18.35453125 1 19 C-0.32 18.67 -1.64 18.34 -3 18 C-2.51679152 11.7945858 -1.66681876 6.00054754 0 0 Z " fill="#EDE7E4" transform="translate(163,382)"/>
<path d="M0 0 C1.85743168 6.11404596 3.42765417 11.58518742 3 18 C1.68 18.33 0.36 18.66 -1 19 C-1.12117188 18.37351562 -1.24234375 17.74703125 -1.3671875 17.1015625 C-1.61855469 15.87566406 -1.61855469 15.87566406 -1.875 14.625 C-2.03742188 13.81289063 -2.19984375 13.00078125 -2.3671875 12.1640625 C-2.86658932 9.81326077 -2.86658932 9.81326077 -5 8 C-9.09176955 8.30309404 -12.46165096 8.87699058 -16 11 C-15.6530874 7.06832391 -14.33850415 4.16358764 -11.7421875 1.16015625 C-8.24819342 -1.16656178 -4.01348546 -0.42083149 0 0 Z " fill="#EDE9E6" transform="translate(429,382)"/>
<path d="M0 0 C1.19012695 0.00580078 1.19012695 0.00580078 2.40429688 0.01171875 C3.19384766 0.00785156 3.98339844 0.00398438 4.796875 0 C10.71353554 0.01008808 10.71353554 0.01008808 12.96679688 1.13671875 C13.00951788 2.8028378 13.0074352 4.4705476 12.96679688 6.13671875 C11.44470097 7.65881465 10.08469606 7.26631396 7.96679688 7.26953125 C7.16242188 7.27082031 6.35804688 7.27210938 5.52929688 7.2734375 C4.68367188 7.26957031 3.83804687 7.26570313 2.96679688 7.26171875 C2.12117188 7.26558594 1.27554687 7.26945312 0.40429688 7.2734375 C-0.40007812 7.27214844 -1.20445312 7.27085937 -2.03320312 7.26953125 C-2.77570313 7.26840332 -3.51820313 7.26727539 -4.28320312 7.26611328 C-6.03320312 7.13671875 -6.03320312 7.13671875 -7.03320312 6.13671875 C-7.15820312 3.63671875 -7.15820312 3.63671875 -7.03320312 1.13671875 C-5.15686053 -0.73962384 -2.49237813 0.00425684 0 0 Z " fill="#EA5F0F" transform="translate(324.033203125,378.86328125)"/>
<path d="M0 0 C0.66 0 1.32 0 2 0 C1.30781494 4.89404087 -0.61576439 9.12684698 -2.5625 13.625 C-3.28269507 15.31113685 -4.00274252 16.99733676 -4.72265625 18.68359375 C-5.28170654 19.98659424 -5.28170654 19.98659424 -5.85205078 21.31591797 C-7.75473074 25.76467667 -9.6259561 30.22662213 -11.5 34.6875 C-12.17693706 36.2956345 -12.85400672 37.90371319 -13.53125 39.51171875 C-14.0159375 40.66285156 -14.500625 41.81398438 -15 43 C-15.99 43 -16.98 43 -18 43 C-16.5663698 38.51867343 -14.8914956 34.17703922 -13.06640625 29.84375 C-12.78780258 29.17839233 -12.50919891 28.51303467 -12.22215271 27.82751465 C-11.63574798 26.42866716 -11.0482519 25.03027673 -10.4597168 23.63232422 C-9.56565875 21.50750709 -8.67615116 19.38082633 -7.78710938 17.25390625 C-7.21381373 15.88790662 -6.64025474 14.52201747 -6.06640625 13.15625 C-5.80380508 12.52795288 -5.54120392 11.89965576 -5.27064514 11.25231934 C-3.65454533 7.42330424 -1.89548786 3.69830585 0 0 Z " fill="#EDDBD0" transform="translate(238,281)"/>
<path d="M0 0 C0.99 0 1.98 0 3 0 C3 12.54 3 25.08 3 38 C2.01 38 1.02 38 0 38 C0 25.46 0 12.92 0 0 Z " fill="#EDE0D9" transform="translate(216,283)"/>
<path d="M0 0 C2.9664161 0.3178303 4.01076795 1.0104603 6.1875 3.125 C8.30075583 6.47706098 8.69282238 9.08348532 9 13 C5.1936543 12.32829194 1.64793184 11.27253436 -2 10 C-2.25 3.375 -2.25 3.375 0 0 Z " fill="#EDE6E2" transform="translate(334,449)"/>
<path d="M0 0 C3.875 1.875 3.875 1.875 5 3 C5.04092937 5.33297433 5.04241723 7.66705225 5 10 C3.54293274 10.50367757 2.08429904 11.00282556 0.625 11.5 C-0.18710938 11.7784375 -0.99921875 12.056875 -1.8359375 12.34375 C-4 13 -4 13 -6 13 C-5.63118644 6.85310727 -4.09949571 4.30972626 0 0 Z " fill="#EDE9E6" transform="translate(255,449)"/>
<path d="M0 0 C2.31 0.66 4.62 1.32 7 2 C4 6.5 4 6.5 1 11 C0.83300768 14.12521833 0.83300768 14.12521833 1 17 C-0.65 16.67 -2.3 16.34 -4 16 C-4.91722771 13.47762381 -5.33896081 11.75175466 -4.2109375 9.25 C-3.48624094 8.04043451 -2.74651255 6.83975085 -1.9921875 5.6484375 C-0.88603738 3.81066053 -0.33857445 2.11609031 0 0 Z " fill="#EDDFD8" transform="translate(410,378)"/>
<path d="M0 0 C0.84584998 1.55575978 1.67618399 3.1199612 2.5 4.6875 C2.9640625 5.55761719 3.428125 6.42773438 3.90625 7.32421875 C5.06542365 10.16005428 5.37148754 11.97134465 5 15 C4.34 15.66 3.68 16.32 3 17 C2.01 17 1.02 17 0 17 C-0.0928125 15.453125 -0.0928125 15.453125 -0.1875 13.875 C-0.96371214 10.17306517 -1.2636713 9.35334854 -3.625 6.75 C-4.800625 5.38875 -4.800625 5.38875 -6 4 C-5.67 3.01 -5.34 2.02 -5 1 C-2 0 -2 0 0 0 Z " fill="#EDE1D9" transform="translate(182,378)"/>
<path d="M0 0 C-1 2 -1 2 -2.70703125 2.67578125 C-3.40183594 2.88589844 -4.09664063 3.09601563 -4.8125 3.3125 C-8.85134537 4.77920056 -10.82562212 6.15302375 -13 10 C-13.86922601 12.97235332 -14.49434513 15.94611071 -15 19 C-15.66 19 -16.32 19 -17 19 C-17.60524621 12.22124239 -16.38410317 8.25367735 -12 3 C-8.10086386 -0.28348307 -5.00263851 -0.29427285 0 0 Z " fill="#EDE5E0" transform="translate(267,151)"/>
<path d="M0 0 C0.33 0 0.66 0 1 0 C1 2.31 1 4.62 1 7 C1.66 7 2.32 7 3 7 C2.58318127 11.8628852 0.63015855 13.86486307 -3 17 C-7.44827586 20 -7.44827586 20 -10 20 C-10.33 19.01 -10.66 18.02 -11 17 C-10.44570313 16.75765625 -9.89140625 16.5153125 -9.3203125 16.265625 C-8.59585937 15.93046875 -7.87140625 15.5953125 -7.125 15.25 C-6.40570313 14.92515625 -5.68640625 14.6003125 -4.9453125 14.265625 C-2.58172272 12.72786779 -1.95445768 11.63430319 -1 9 C-0.55188863 6.64435404 -0.55188863 6.64435404 -0.375 4.25 C-0.30023438 3.45078125 -0.22546875 2.6515625 -0.1484375 1.828125 C-0.09945313 1.22484375 -0.05046875 0.6215625 0 0 Z " fill="#EDD4C5" transform="translate(339,163)"/>
<path d="M0 0 C0.33 0 0.66 0 1 0 C1.13277344 0.68707031 1.26554688 1.37414062 1.40234375 2.08203125 C1.57894531 2.98308594 1.75554687 3.88414062 1.9375 4.8125 C2.19853516 6.15248047 2.19853516 6.15248047 2.46484375 7.51953125 C2.97741153 10.11397171 2.97741153 10.11397171 4 13 C6.42383077 14.16953416 6.42383077 14.16953416 9 15 C9.66 15.33 10.32 15.66 11 16 C11 16.99 11 17.98 11 19 C5.2215576 17.76176234 2.13470016 14.83989536 -1 10 C-1.66796875 7.7734375 -1.66796875 7.7734375 -2 6 C-1.34 6 -0.68 6 0 6 C0 4.02 0 2.04 0 0 Z " fill="#EDDACE" transform="translate(252,164)"/>
<path d="M0 0 C2.31 0 4.62 0 7 0 C7 2.31 7 4.62 7 7 C4.69 7 2.38 7 0 7 C0 4.69 0 2.38 0 0 Z " fill="#EA6E28" transform="translate(353,158)"/>
<path d="M0 0 C1.98 0 3.96 0 6 0 C6 1.98 6 3.96 6 6 C4.02 6 2.04 6 0 6 C0 4.02 0 2.04 0 0 Z " fill="#EA5906" transform="translate(253,241)"/>
<path d="M0 0 C1.98 0 3.96 0 6 0 C6 1.98 6 3.96 6 6 C4.02 6 2.04 6 0 6 C0 4.02 0 2.04 0 0 Z " fill="#EA5906" transform="translate(242,241)"/>
<path d="M0 0 C1.98 0 3.96 0 6 0 C6 1.98 6 3.96 6 6 C4.02 6 2.04 6 0 6 C0 4.02 0 2.04 0 0 Z " fill="#EA5906" transform="translate(231,241)"/>
<path d="M0 0 C1.98 0 3.96 0 6 0 C6 1.98 6 3.96 6 6 C4.02 6 2.04 6 0 6 C0 4.02 0 2.04 0 0 Z " fill="#EA5D0C" transform="translate(220,241)"/>
<path d="M0 0 C1.98 0 3.96 0 6 0 C6 1.98 6 3.96 6 6 C4.02 6 2.04 6 0 6 C0 4.02 0 2.04 0 0 Z " fill="#EA5906" transform="translate(354,168)"/>
<path d="M0 0 C0.99 0 1.98 0 3 0 C4.20272819 2.40545638 4.10071472 3.94996953 4.0625 6.625 C4.05347656 7.44226563 4.04445313 8.25953125 4.03515625 9.1015625 C4.02355469 9.72804687 4.01195312 10.35453125 4 11 C3.34 11 2.68 11 2 11 C1.34 7.37 0.68 3.74 0 0 Z " fill="#EDE5E1" transform="translate(338,159)"/>
<path d="M0 0 C6.625 -0.25 6.625 -0.25 10 2 C9.34 2.66 8.68 3.32 8 4 C5.04337034 3.77256695 3.44966312 3.38764062 1.1875 1.4375 C0.795625 0.963125 0.40375 0.48875 0 0 Z " fill="#EDD3C4" transform="translate(263,150)"/>
<path d="M0 0 C1 3 1 3 0.0625 5.1875 C-0.4634375 6.0846875 -0.4634375 6.0846875 -1 7 C-1.99 7 -2.98 7 -4 7 C-3.39816251 4.97954558 -2.72693904 2.97888961 -2 1 C-1.34 0.67 -0.68 0.34 0 0 Z " fill="#EDD4C6" transform="translate(224,317)"/>
<path d="M0 0 C1 3 1 3 0.25 5.625 C-1 8 -1 8 -4 9 C-2.25 2.25 -2.25 2.25 0 0 Z " fill="#EDE5E0" transform="translate(232,297)"/>
</svg>
